<?xml version="1.0" encoding="utf-8"?>
<!-- Generator: Adobe Illustrator 24.2.0, SVG Export Plug-In . SVG Version: 6.00 Build 0)  -->
<svg version="1.1" xmlns="http://www.w3.org/2000/svg" xmlns:xlink="http://www.w3.org/1999/xlink" x="0px" y="0px"
	 viewBox="0 0 3000 1500" style="enable-background:new 0 0 3000 1500;" xml:space="preserve">
<g id="Livello_2">
	<linearGradient id="SVGID_1_" gradientUnits="userSpaceOnUse" x1="1284.5898" y1="-16.8144" x2="1666.9443" y2="1344.2864">
		<stop  offset="0" style="stop-color:#281483;stop-opacity:0.9"/>
		<stop  offset="0.2926" style="stop-color:#6439A0;stop-opacity:0.9"/>
		<stop  offset="0.6267" style="stop-color:#A260BF;stop-opacity:0.9"/>
		<stop  offset="0.872" style="stop-color:#C879D2;stop-opacity:0.9"/>
		<stop  offset="1" style="stop-color:#D782D9;stop-opacity:0.9"/>
	</linearGradient>
	<rect style="fill:url(#SVGID_1_);" width="3000" height="1500"/>
</g>
<g id="Layer_1">
	<g>
		
			<radialGradient id="SVGID_2_" cx="1500.0455" cy="752.9618" r="67.4463" gradientTransform="matrix(25.0325 0 0 25.2575 -36049.8906 -18269.6484)" gradientUnits="userSpaceOnUse">
			<stop  offset="0" style="stop-color:#FFFFFF"/>
			<stop  offset="0.2804" style="stop-color:#FCFCFC"/>
			<stop  offset="0.4783" style="stop-color:#F3F3F4"/>
			<stop  offset="0.6507" style="stop-color:#E3E4E5"/>
			<stop  offset="0.8084" style="stop-color:#CDCFD0"/>
			<stop  offset="0.955" style="stop-color:#B1B3B6"/>
			<stop  offset="1" style="stop-color:#A7A9AC"/>
		</radialGradient>
		<rect style="display:none;fill:url(#SVGID_2_);" width="3000" height="1500"/>
		<g style="opacity:0.51;">
			<g>
				<path style="opacity:0.5653;fill:#F1F2F2;" d="M2178.14,1575.26l0.27,0.15v30.98l-26.59,15.48l-26.29-15.33l-0.29-0.15v-30.98
					l26.59-15.48L2178.14,1575.26z M2126.36,1605.73l25.47,14.84l25.49-14.84v-29.66l-25.49-14.84l-25.47,14.84V1605.73z"/>
			</g>
			<g>
				<path style="opacity:0.7657;fill:#F1F2F2;" d="M1839.74,1529.75l0.28,0.17v121.95l-104.4,60.81l-0.28,0.17l-104.4-60.82
					l-0.28-0.17v-121.95l104.39-60.82l0.28-0.17L1839.74,1529.75z M1631.78,1651.24l103.57,60.33l103.56-60.33v-120.68
					l-103.56-60.33l-103.57,60.33V1651.24z"/>
			</g>
			<g>
				<path style="opacity:0.5793;fill:#F1F2F2;" d="M1761.65,1575.26l0.28,0.15v30.98l-26.59,15.48l-26.31-15.33l-0.28-0.15v-30.98
					l26.59-15.48L1761.65,1575.26z M1709.87,1605.73l25.47,14.84l25.48-14.84v-29.66l-25.48-14.84l-25.47,14.84V1605.73z"/>
			</g>
			<g>
				<path style="opacity:0.901;fill:#F1F2F2;" d="M1995.93,1196.16l0.27,0.17v61.28l-52.61,30.67l-52.33-30.49l-0.28-0.17v-61.28
					l52.61-30.66L1995.93,1196.16z M1892.08,1256.97l51.5,30.01l51.51-30.01v-60.01l-51.51-30l-51.5,30V1256.97z"/>
			</g>
			<g>
				<path style="opacity:0.8562;fill:#F1F2F2;" d="M2047.99,1165.84l0.27,0.15v121.97l-104.68,60.96l-104.4-60.81l-0.28-0.15
					v-121.97l104.67-60.96L2047.99,1165.84z M1840.02,1287.3l103.56,60.33l103.58-60.33v-120.65l-103.58-60.33l-103.56,60.33V1287.3
					z"/>
			</g>
			<g>
				<path style="opacity:0.9361;fill:#F1F2F2;" d="M2360.35,1590.42l0.29,0.15v243.27l-208.52,121.47l-0.29,0.16L1943.32,1834
					l-0.28-0.16v-243.27l208.52-121.46l0.27-0.17L2360.35,1590.42z M1944.15,1833.19l207.68,120.98l207.69-120.98v-241.97
					l-207.69-120.99l-207.68,120.99V1833.19z"/>
			</g>
			<g>
				<path style="opacity:0.6204;fill:#F1F2F2;" d="M2047.99,1772.38l0.27,0.17v121.95l-104.4,60.82l-0.28,0.16l-104.4-60.82
					l-0.28-0.16v-121.95l104.41-60.82l0.27-0.17L2047.99,1772.38z M1840.02,1893.85l103.56,60.33l103.58-60.33v-120.67
					l-103.58-60.33l-103.56,60.33V1893.85z"/>
			</g>
			<g>
				<path style="opacity:0.9207;fill:#F1F2F2;" d="M2464.47,1529.75l0.27,0.17v121.95l-104.39,60.81l-0.27,0.17l-104.4-60.82
					l-0.27-0.17v-121.95l104.4-60.82l0.27-0.17L2464.47,1529.75z M2256.51,1651.24l103.56,60.33l103.56-60.33v-120.68l-103.56-60.33
					l-103.56,60.33V1651.24z"/>
			</g>
			<g>
				<path style="opacity:0.7779;fill:#F1F2F2;" d="M2204.17,1438.79l0.27,0.15v61.31l-52.61,30.66l-52.32-30.49l-0.29-0.17v-61.31
					l52.61-30.64L2204.17,1438.79z M2100.34,1499.6l51.49,30.01l51.51-30.01v-60.01l-51.51-30.01l-51.49,30.01V1499.6z"/>
			</g>
			<g>
				<path style="opacity:0.6118;fill:#F1F2F2;" d="M1969.89,1575.26l0.28,0.15v30.98l-26.59,15.48l-26.3-15.33l-0.27-0.15v-30.98
					l26.57-15.48L1969.89,1575.26z M1918.11,1605.73l25.47,14.84l25.47-14.84v-29.66l-25.47-14.84l-25.47,14.84V1605.73z"/>
			</g>
			<g>
				<path style="opacity:0.6984;fill:#F1F2F2;" d="M2412.42,1560.07l0.27,0.17v61.3l-52.61,30.64l-52.34-30.49l-0.27-0.15v-61.3
					l52.61-30.64L2412.42,1560.07z M2308.56,1620.91l51.51,29.98l51.51-29.98v-60.01l-51.51-30.01l-51.51,30.01V1620.91z"/>
			</g>
			<g>
				<path style="opacity:0.8157;fill:#F1F2F2;" d="M2464.47,1287.15l0.27,0.15v121.95l-104.39,60.82l-0.27,0.17l-104.4-60.82
					l-0.27-0.17V1287.3l104.4-60.81l0.27-0.17L2464.47,1287.15z M2256.51,1408.61l103.56,60.33l103.56-60.33v-120.65l-103.56-60.35
					l-103.56,60.35V1408.61z"/>
			</g>
			<g>
				<polygon style="opacity:0.5715;fill:#F1F2F2;" points="2013.61,1065.52 1944.15,1105.97 1944.15,1347.97 2151.83,1468.94 
					2359.52,1347.97 2359.52,1105.97 2290.06,1065.52 2292.28,1065.52 2360.35,1105.17 2360.64,1105.34 2360.64,1348.6 
					2152.12,1470.06 2151.83,1470.23 1943.32,1348.77 1943.04,1348.6 1943.04,1105.34 2011.38,1065.52 				"/>
			</g>
			<g>
				<polygon style="opacity:0.8677;fill:#F1F2F2;" points="2084.04,1065.52 2151.83,1105.02 2219.62,1065.52 2221.85,1065.52 
					2151.83,1106.31 2081.82,1065.52 				"/>
			</g>
			<g>
				<polygon style="opacity:0.5475;fill:#F1F2F2;" points="1944.15,1065.52 1944.15,1105.34 2151.83,1226.31 2359.52,1105.34 
					2359.52,1065.52 2360.64,1065.52 2360.64,1105.97 2152.12,1227.46 2151.83,1227.6 1943.32,1106.14 1943.04,1105.97 
					1943.04,1065.52 				"/>
			</g>
			<g>
				<path style="opacity:0.8834;fill:#F1F2F2;" d="M2256.22,1165.84l0.29,0.15v121.97l-104.69,60.96l-104.4-60.81l-0.27-0.15
					v-121.97l104.66-60.96L2256.22,1165.84z M2048.26,1287.3l103.56,60.33l103.56-60.33v-120.65l-103.56-60.33l-103.56,60.33V1287.3
					z"/>
			</g>
			<g>
				<polygon style="opacity:0.5245;fill:#F1F2F2;" points="2325.97,1065.52 2308.56,1075.65 2308.56,1135.66 2360.08,1165.67 
					2411.59,1135.66 2411.59,1075.65 2394.18,1065.52 2396.41,1065.52 2412.69,1075.02 2412.69,1136.32 2360.08,1166.96 
					2307.47,1136.32 2307.47,1075.02 2323.75,1065.52 				"/>
			</g>
			<g>
				<polygon style="opacity:0.7529;fill:#F1F2F2;" points="2084.04,1065.52 2151.83,1105.02 2219.62,1065.52 2221.85,1065.52 
					2151.83,1106.31 2081.82,1065.52 				"/>
			</g>
			<g>
				<path style="opacity:0.8927;fill:#F1F2F2;" d="M2178.14,1817.86l0.27,0.17V1849l-26.59,15.49l-26.29-15.33l-0.29-0.16v-30.97
					l26.59-15.49L2178.14,1817.86z M2126.36,1848.36l25.47,14.84l25.49-14.84v-29.68l-25.49-14.84l-25.47,14.84V1848.36z"/>
			</g>
			<g>
				<path style="opacity:0.8384;fill:#F1F2F2;" d="M2620.65,1802.7l0.29,0.17v61.29l-52.61,30.65l-52.34-30.49l-0.27-0.16v-61.29
					l52.61-30.66L2620.65,1802.7z M2516.82,1863.52l51.51,30.01l51.49-30.01v-60l-51.49-30.02l-51.51,30.02V1863.52z"/>
			</g>
			<g>
				<path style="opacity:0.6654;fill:#F1F2F2;" d="M2412.42,1438.79l0.27,0.15v61.31l-52.61,30.66l-52.34-30.49l-0.27-0.17v-61.31
					l52.61-30.64L2412.42,1438.79z M2308.56,1499.6l51.51,30.01l51.51-30.01v-60.01l-51.51-30.01l-51.51,30.01V1499.6z"/>
			</g>
			<g>
				<path style="opacity:0.6262;fill:#F1F2F2;" d="M2178.14,1575.26l0.27,0.15v30.98l-26.59,15.48l-26.29-15.33l-0.29-0.15v-30.98
					l26.59-15.48L2178.14,1575.26z M2126.36,1605.73l25.47,14.84l25.49-14.84v-29.66l-25.49-14.84l-25.47,14.84V1605.73z"/>
			</g>
			<g>
				<path style="opacity:0.5193;fill:#F1F2F2;" d="M2178.14,1332.63l0.27,0.17v30.96l-26.59,15.48l-26.29-15.31l-0.29-0.17v-30.96
					l26.59-15.5L2178.14,1332.63z M2126.36,1363.13l25.47,14.84l25.49-14.84v-29.69l-25.49-14.85l-25.47,14.85V1363.13z"/>
			</g>
			<g>
				<path style="opacity:0.9905;fill:#F1F2F2;" d="M2672.72,1287.15l0.27,0.15v121.95l-104.4,60.82l-0.27,0.17l-104.42-60.82
					l-0.27-0.17V1287.3l104.4-60.81l0.29-0.17L2672.72,1287.15z M2464.74,1408.61l103.59,60.33l103.57-60.33v-120.65l-103.57-60.35
					l-103.59,60.35V1408.61z"/>
			</g>
			<g>
				<path style="opacity:0.517;fill:#F1F2F2;" d="M2594.89,1090.18v30.96l-26.56,15.5l-26.58-15.5v-30.96l26.58-15.5
					L2594.89,1090.18z M2542.84,1120.5l25.49,14.84l25.47-14.84v-29.69l-25.47-14.84l-25.49,14.84V1120.5z"/>
			</g>
			<g>
				<polygon style="opacity:0.6479;fill:#F1F2F2;" points="2464.74,1065.52 2464.74,1165.98 2568.33,1226.31 2671.89,1165.98 
					2671.89,1065.52 2672.99,1065.52 2672.99,1166.64 2568.6,1227.46 2568.33,1227.6 2463.91,1166.79 2463.64,1166.64 
					2463.64,1065.52 				"/>
			</g>
			<g>
				<path style="opacity:0.9857;fill:#F1F2F2;" d="M2828.9,1802.7l0.27,0.17v61.29l-52.61,30.65l-52.32-30.49l-0.29-0.16v-61.29
					l52.61-30.66L2828.9,1802.7z M2725.04,1863.52l51.51,30.01l51.52-30.01v-60l-51.52-30.02l-51.51,30.02V1863.52z"/>
			</g>
			<g>
				<path style="opacity:0.7696;fill:#F1F2F2;" d="M2880.95,1287.15l0.29,0.15v121.95l-104.39,60.82l-0.3,0.17l-104.39-60.82
					l-0.27-0.17V1287.3l104.4-60.81l0.27-0.17L2880.95,1287.15z M2672.99,1408.61l103.56,60.33l103.57-60.33v-120.65l-103.57-60.35
					l-103.56,60.35V1408.61z"/>
			</g>
			<g>
				<polygon style="opacity:0.8062;fill:#F1F2F2;" points="2430.1,1065.52 2360.64,1105.97 2360.64,1347.97 2568.33,1468.94 
					2776.02,1347.97 2776.02,1105.97 2706.56,1065.52 2708.76,1065.52 2776.85,1105.17 2777.12,1105.34 2777.12,1348.6 
					2568.6,1470.06 2568.33,1470.23 2359.81,1348.77 2359.52,1348.6 2359.52,1105.34 2427.88,1065.52 				"/>
			</g>
			<g>
				<path style="opacity:0.9977;fill:#F1F2F2;" d="M2803.14,1090.18v30.96l-26.59,15.5l-26.58-15.5v-30.96l26.58-15.5
					L2803.14,1090.18z M2751.09,1120.5l25.46,14.84l25.49-14.84v-29.69l-25.49-14.84l-25.46,14.84V1120.5z"/>
			</g>
			<g>
				<polygon style="opacity:0.6323;fill:#F1F2F2;" points="2256.51,1065.52 2256.51,1165.98 2360.08,1226.31 2463.64,1165.98 
					2463.64,1065.52 2464.74,1065.52 2464.74,1166.64 2360.35,1227.46 2360.08,1227.6 2255.68,1166.79 2255.41,1166.64 
					2255.41,1065.52 				"/>
			</g>
			<g>
				<path style="opacity:0.5774;fill:#F1F2F2;" d="M2386.66,1090.18v30.96l-26.58,15.5l-26.59-15.5v-30.96l26.59-15.5
					L2386.66,1090.18z M2334.59,1120.5l25.49,14.84l25.49-14.84v-29.69l-25.49-14.84l-25.49,14.84V1120.5z"/>
			</g>
			<g>
				<polygon style="opacity:0.6004;fill:#F1F2F2;" points="2256.51,1065.52 2256.51,1165.98 2360.08,1226.31 2463.64,1165.98 
					2463.64,1065.52 2464.74,1065.52 2464.74,1166.64 2360.35,1227.46 2360.08,1227.6 2255.68,1166.79 2255.41,1166.64 
					2255.41,1065.52 				"/>
			</g>
			<g>
				<polygon style="opacity:0.6006;fill:#F1F2F2;" points="2500.53,1065.52 2568.33,1105.02 2636.1,1065.52 2638.32,1065.52 
					2568.33,1106.31 2498.31,1065.52 				"/>
			</g>
			<g>
				<path style="opacity:0.6198;fill:#F1F2F2;" d="M2594.62,1817.86l0.27,0.17V1849l-26.56,15.49l-26.32-15.33l-0.27-0.16v-30.97
					l26.58-15.49L2594.62,1817.86z M2542.84,1848.36l25.49,14.84l25.47-14.84v-29.68l-25.47-14.84l-25.49,14.84V1848.36z"/>
			</g>
			<g>
				<path style="opacity:0.9164;fill:#F1F2F2;" d="M2594.62,1575.26l0.27,0.15v30.98l-26.56,15.48l-26.32-15.33l-0.27-0.15v-30.98
					l26.58-15.48L2594.62,1575.26z M2542.84,1605.73l25.49,14.84l25.47-14.84v-29.66l-25.47-14.84l-25.49,14.84V1605.73z"/>
			</g>
			<g>
				<path style="opacity:0.5577;fill:#F1F2F2;" d="M2672.72,1287.15l0.27,0.15v121.95l-104.4,60.82l-0.27,0.17l-104.42-60.82
					l-0.27-0.17V1287.3l104.4-60.81l0.29-0.17L2672.72,1287.15z M2464.74,1408.61l103.59,60.33l103.57-60.33v-120.65l-103.57-60.35
					l-103.59,60.35V1408.61z"/>
			</g>
			<g>
				<path style="opacity:0.6643;fill:#F1F2F2;" d="M3037.15,1317.47l0.27,0.15v61.3l-52.61,30.67l-52.34-30.49l-0.27-0.17v-61.3
					l52.61-30.64L3037.15,1317.47z M2933.3,1378.29l51.51,30.01l51.52-30.01v-60.01l-51.52-30.01l-51.51,30.01V1378.29z"/>
			</g>
			<g>
				<path style="opacity:0.9482;fill:#F1F2F2;" d="M2880.95,1165.84l0.29,0.15v121.97l-104.69,60.96l-104.39-60.81l-0.27-0.15
					v-121.97l104.66-60.96L2880.95,1165.84z M2672.99,1287.3l103.56,60.33l103.57-60.33v-120.65l-103.57-60.33l-103.56,60.33V1287.3
					z"/>
			</g>
			<g>
				<path style="opacity:0.8287;fill:#F1F2F2;" d="M3193.33,1347.79l0.27,0.17v243.26l-208.52,121.46l-0.27,0.17l-208.52-121.48
					l-0.27-0.15v-243.26l208.52-121.48l0.27-0.17L3193.33,1347.79z M2777.12,1590.57l207.69,120.99l207.69-120.99V1348.6
					l-207.69-120.99l-207.69,120.99V1590.57z"/>
			</g>
			<g>
				<path style="opacity:0.9627;fill:#F1F2F2;" d="M2802.88,1575.26l0.27,0.15v30.98l-26.59,15.48l-26.29-15.33l-0.29-0.15v-30.98
					l26.58-15.48L2802.88,1575.26z M2751.09,1605.73l25.46,14.84l25.49-14.84v-29.66l-25.49-14.84l-25.46,14.84V1605.73z"/>
			</g>
			<g>
				<path style="opacity:0.6877;fill:#F1F2F2;" d="M3297.46,1529.75l0.27,0.17v121.95l-104.4,60.81l-0.27,0.17l-104.42-60.82
					l-0.27-0.17v-121.95l104.4-60.82l0.29-0.17L3297.46,1529.75z M3089.47,1651.24l103.59,60.33l103.56-60.33v-120.68l-103.56-60.33
					l-103.59,60.33V1651.24z"/>
			</g>
			<g>
				<path style="opacity:0.5544;fill:#F1F2F2;" d="M3037.15,1196.16l0.27,0.17v61.28l-52.61,30.67l-52.34-30.49l-0.27-0.17v-61.28
					l52.61-30.66L3037.15,1196.16z M2933.3,1256.97l51.51,30.01l51.52-30.01v-60.01l-51.52-30l-51.51,30V1256.97z"/>
			</g>
			<g>
				<path style="opacity:0.8016;fill:#F1F2F2;" d="M3089.2,1408.44l0.27,0.17v121.95l-104.39,60.81l-0.27,0.17l-104.39-60.82
					l-0.29-0.17v-121.95l104.42-60.81l0.27-0.17L3089.2,1408.44z M2881.24,1529.92l103.56,60.33l103.57-60.33v-120.68l-103.57-60.33
					l-103.56,60.33V1529.92z"/>
			</g>
			<g>
				<polygon style="opacity:0.5003;fill:#F1F2F2;" points="2917.01,1065.52 2984.81,1105.02 3052.61,1065.52 3054.83,1065.52 
					2984.81,1106.31 2914.79,1065.52 				"/>
			</g>
			<g>
				<polygon style="opacity:0.7569;fill:#F1F2F2;" points="2672.99,1065.52 2672.99,1165.98 2776.56,1226.31 2880.12,1165.98 
					2880.12,1065.52 2881.24,1065.52 2881.24,1166.64 2776.85,1227.46 2776.56,1227.6 2672.16,1166.79 2671.89,1166.64 
					2671.89,1065.52 				"/>
			</g>
			<g>
				<path style="opacity:0.9339;fill:#F1F2F2;" d="M3089.2,1165.84l0.27,0.15v121.97l-104.66,60.96l-104.39-60.81l-0.29-0.15
					v-121.97l104.69-60.96L3089.2,1165.84z M2881.24,1287.3l103.56,60.33l103.57-60.33v-120.65l-103.57-60.33l-103.56,60.33V1287.3z
					"/>
			</g>
			<g>
				<polygon style="opacity:0.6722;fill:#F1F2F2;" points="3158.93,1065.52 3141.55,1075.65 3141.55,1135.66 3193.06,1165.67 
					3244.55,1135.66 3244.55,1075.65 3227.17,1065.52 3229.37,1065.52 3245.67,1075.02 3245.67,1136.32 3193.06,1166.96 
					3140.42,1136.32 3140.42,1075.02 3156.73,1065.52 				"/>
			</g>
			<g>
				<polygon style="opacity:0.5645;fill:#F1F2F2;" points="2917.01,1065.52 2984.81,1105.02 3052.61,1065.52 3054.83,1065.52 
					2984.81,1106.31 2914.79,1065.52 				"/>
			</g>
			<g>
				<path style="opacity:0.7115;fill:#F1F2F2;" d="M3011.1,1817.86l0.29,0.17V1849l-26.59,15.49l-26.32-15.33l-0.27-0.16v-30.97
					l26.59-15.49L3011.1,1817.86z M2959.32,1848.36l25.49,14.84l25.47-14.84v-29.68l-25.47-14.84l-25.49,14.84V1848.36z"/>
			</g>
			<g>
				<path style="opacity:0.6307;fill:#F1F2F2;" d="M3089.2,1772.38l0.27,0.17v121.95l-104.39,60.82l-0.27,0.16l-104.39-60.82
					l-0.29-0.16v-121.95l104.42-60.82l0.27-0.17L3089.2,1772.38z M2881.24,1893.85l103.56,60.33l103.57-60.33v-120.67l-103.57-60.33
					l-103.56,60.33V1893.85z"/>
			</g>
			<g>
				<path style="opacity:0.9278;fill:#F1F2F2;" d="M3505.68,1772.38l0.29,0.17v121.95l-104.69,60.97l-104.4-60.82l-0.27-0.16
					v-121.95l104.4-60.82l0.27-0.17L3505.68,1772.38z M3297.72,1893.85l103.57,60.33l103.56-60.33v-120.67l-103.56-60.33
					l-103.57,60.33V1893.85z"/>
			</g>
			<g>
				<path style="opacity:0.6392;fill:#F1F2F2;" d="M3505.68,1529.75l0.29,0.17v121.95l-104.69,60.99l-104.4-60.82l-0.27-0.17
					v-121.95l104.66-60.99L3505.68,1529.75z M3297.72,1651.24l103.57,60.33l103.56-60.33v-120.68l-103.56-60.33l-103.57,60.33
					V1651.24z"/>
			</g>
			<g>
				<path style="opacity:0.8937;fill:#F1F2F2;" d="M3401.58,1347.79l0.27,0.17v243.26l-208.52,121.46l-0.27,0.17l-208.52-121.48
					l-0.29-0.15v-243.26l208.52-121.48l0.29-0.17L3401.58,1347.79z M2985.37,1590.57l207.69,120.99l207.69-120.99V1348.6
					l-207.69-120.99l-207.69,120.99V1590.57z"/>
			</g>
			<g>
				<path style="opacity:0.6526;fill:#F1F2F2;" d="M3011.1,1575.26l0.29,0.15v30.98l-26.59,15.48l-26.32-15.33l-0.27-0.15v-30.98
					l26.59-15.48L3011.1,1575.26z M2959.32,1605.73l25.49,14.84l25.47-14.84v-29.66l-25.47-14.84l-25.49,14.84V1605.73z"/>
			</g>
			<g>
				<path style="opacity:0.6213;fill:#F1F2F2;" d="M3011.1,1332.63l0.29,0.17v30.96l-26.59,15.48l-26.32-15.31l-0.27-0.17v-30.96
					l26.59-15.5L3011.1,1332.63z M2959.32,1363.13l25.49,14.84l25.47-14.84v-29.69l-25.47-14.85l-25.49,14.85V1363.13z"/>
			</g>
			<g>
				<path style="opacity:0.9916;fill:#F1F2F2;" d="M3427.88,1090.18v30.96l-26.59,15.5l-26.59-15.5v-30.96l26.59-15.5
					L3427.88,1090.18z M3375.82,1120.5l25.47,14.84l25.49-14.84v-29.69l-25.49-14.84l-25.47,14.84V1120.5z"/>
			</g>
			<g>
				<path style="opacity:0.5206;fill:#F1F2F2;" d="M3219.36,1575.26l0.27,0.15v30.98l-26.56,15.48l-26.32-15.33l-0.27-0.15v-30.98
					l26.59-15.48L3219.36,1575.26z M3167.57,1605.73l25.49,14.84l25.46-14.84v-29.66l-25.46-14.84l-25.49,14.84V1605.73z"/>
			</g>
			<g>
				<path style="opacity:0.5092;fill:#F1F2F2;" d="M3297.46,1529.75l0.27,0.17v121.95l-104.4,60.81l-0.27,0.17l-104.42-60.82
					l-0.27-0.17v-121.95l104.4-60.82l0.29-0.17L3297.46,1529.75z M3089.47,1651.24l103.59,60.33l103.56-60.33v-120.68l-103.56-60.33
					l-103.59,60.33V1651.24z"/>
			</g>
			<g>
				<polygon style="opacity:0.6455;fill:#F1F2F2;" points="3561.4,1255.66 3505.98,1287.96 3505.98,1408.61 3561.4,1440.91 
					3561.4,1442.18 3505.15,1409.42 3504.85,1409.24 3504.85,1287.3 3561.4,1254.36 				"/>
			</g>
			<g>
				<path style="opacity:0.5075;fill:#F1F2F2;" d="M3505.68,1165.84l0.29,0.15v121.97l-104.69,60.96l-104.4-60.81l-0.27-0.15
					v-121.97l104.66-60.96L3505.68,1165.84z M3297.72,1287.3l103.57,60.33l103.56-60.33v-120.65l-103.56-60.33l-103.57,60.33V1287.3
					z"/>
			</g>
			<g>
				<polygon style="opacity:0.6536;fill:#F1F2F2;" points="3561.4,1316.32 3558.03,1318.28 3558.03,1378.29 3561.4,1380.24 
					3561.4,1381.53 3557.2,1379.09 3556.93,1378.92 3556.93,1317.62 3561.4,1315.03 				"/>
			</g>
			<g>
				<polygon style="opacity:0.716;fill:#F1F2F2;" points="3333.49,1065.52 3401.29,1105.02 3469.09,1065.52 3471.31,1065.52 
					3401.29,1106.31 3331.27,1065.52 				"/>
			</g>
			<g>
				<polygon style="opacity:0.6878;fill:#F1F2F2;" points="3089.47,1065.52 3089.47,1165.98 3193.06,1226.31 3296.63,1165.98 
					3296.63,1065.52 3297.72,1065.52 3297.72,1166.64 3193.33,1227.46 3193.06,1227.6 3088.67,1166.79 3088.37,1166.64 
					3088.37,1065.52 				"/>
			</g>
			<g>
				<path style="opacity:0.8538;fill:#F1F2F2;" d="M3505.68,1165.84l0.29,0.15v121.97l-104.69,60.96l-104.4-60.81l-0.27-0.15
					v-121.97l104.66-60.96L3505.68,1165.84z M3297.72,1287.3l103.57,60.33l103.56-60.33v-120.65l-103.56-60.33l-103.57,60.33V1287.3
					z"/>
			</g>
			<g>
				<polygon style="opacity:0.811;fill:#F1F2F2;" points="3561.4,1255.66 3401.85,1348.6 3401.85,1590.57 3561.4,1683.51 
					3561.4,1684.81 3401.02,1591.37 3400.75,1591.23 3400.75,1347.97 3561.4,1254.36 				"/>
			</g>
			<g>
				<polygon style="opacity:0.6353;fill:#F1F2F2;" points="3471.31,1065.52 3401.85,1105.97 3401.85,1347.97 3561.4,1440.91 
					3561.4,1442.18 3401.02,1348.77 3400.75,1348.6 3400.75,1105.34 3469.09,1065.52 				"/>
			</g>
			<g>
				<polygon style="opacity:0.9972;fill:#F1F2F2;" points="3561.4,1376.97 3505.98,1409.24 3505.98,1529.92 3561.4,1562.2 
					3561.4,1563.49 3505.15,1530.73 3504.85,1530.56 3504.85,1408.61 3561.4,1375.67 				"/>
			</g>
			<g>
				<polygon style="opacity:0.9775;fill:#F1F2F2;" points="3541.74,1065.52 3561.4,1076.97 3561.4,1078.26 3539.52,1065.52 				"/>
			</g>
			<g>
				<polygon style="opacity:0.6343;fill:#F1F2F2;" points="3541.74,1065.52 3561.4,1076.97 3561.4,1078.26 3539.52,1065.52 				"/>
			</g>
			<g>
				<polygon style="opacity:0.8543;fill:#F1F2F2;" points="3561.4,1740.88 3505.98,1773.18 3505.98,1893.85 3561.4,1926.14 
					3561.4,1927.42 3505.15,1894.66 3504.85,1894.5 3504.85,1772.55 3561.4,1739.62 				"/>
			</g>
			<g>
				<polygon style="opacity:0.6795;fill:#F1F2F2;" points="3505.98,1065.52 3505.98,1165.98 3561.4,1198.28 3561.4,1199.58 
					3505.15,1166.79 3504.85,1166.64 3504.85,1065.52 				"/>
			</g>
			<path style="opacity:0.8144;fill:#F1F2F2;" d="M2132.44,1575.72c0-3.69-2.98-6.69-6.64-6.69c-3.66,0-6.64,3-6.64,6.69
				c0,3.71,2.98,6.72,6.64,6.72C2129.46,1582.44,2132.44,1579.43,2132.44,1575.72z"/>
			<path style="opacity:0.728;fill:#F1F2F2;" d="M2158.47,1560.56c0-3.69-2.96-6.69-6.64-6.69c-3.66,0-6.64,3-6.64,6.69
				c0,3.71,2.98,6.71,6.64,6.71C2155.51,1567.28,2158.47,1564.27,2158.47,1560.56z"/>
			<path style="opacity:0.7587;fill:#F1F2F2;" d="M2184.52,1575.72c0-3.69-2.98-6.69-6.67-6.69c-3.66,0-6.64,3-6.64,6.69
				c0,3.71,2.98,6.72,6.64,6.72C2181.54,1582.44,2184.52,1579.43,2184.52,1575.72z"/>
			<path style="opacity:0.7652;fill:#F1F2F2;" d="M1741.99,1469.6c0-3.71-2.96-6.71-6.64-6.71c-3.67,0-6.64,3-6.64,6.71
				c0,3.68,2.97,6.69,6.64,6.69C1739.02,1476.29,1741.99,1473.28,1741.99,1469.6z"/>
			<path style="opacity:0.9334;fill:#F1F2F2;" d="M1715.96,1606.07c0-3.71-2.98-6.71-6.64-6.71c-3.68,0-6.65,3-6.65,6.71
				c0,3.69,2.98,6.69,6.65,6.69C1712.98,1612.76,1715.96,1609.76,1715.96,1606.07z"/>
			<path style="opacity:0.6915;fill:#F1F2F2;" d="M2002.29,1196.65c0-3.71-2.96-6.71-6.64-6.71c-3.66,0-6.64,3-6.64,6.71
				c0,3.69,2.98,6.69,6.64,6.69C1999.32,1203.34,2002.29,1200.33,2002.29,1196.65z"/>
			<path style="opacity:0.5175;fill:#F1F2F2;" d="M1846.11,1166.32c0-3.71-2.98-6.71-6.64-6.71c-3.67,0-6.65,3-6.65,6.71
				c0,3.69,2.98,6.69,6.65,6.69C1843.13,1173.01,1846.11,1170.01,1846.11,1166.32z"/>
			<path style="opacity:0.7801;fill:#F1F2F2;" d="M2054.35,1287.61c0-3.69-2.98-6.69-6.64-6.69c-3.67,0-6.64,3-6.64,6.69
				c0,3.71,2.97,6.71,6.64,6.71C2051.37,1294.33,2054.35,1291.32,2054.35,1287.61z"/>
			<path style="opacity:0.8122;fill:#F1F2F2;" d="M1846.11,1287.61c0-3.69-2.98-6.69-6.64-6.69c-3.67,0-6.65,3-6.65,6.69
				c0,3.71,2.98,6.71,6.65,6.71C1843.13,1294.33,1846.11,1291.32,1846.11,1287.61z"/>
			<path style="opacity:0.7332;fill:#F1F2F2;" d="M1950.24,1590.91c0-3.71-2.98-6.71-6.65-6.71c-3.66,0-6.64,3-6.64,6.71
				c0,3.69,2.98,6.69,6.64,6.69C1947.26,1597.6,1950.24,1594.6,1950.24,1590.91z"/>
			<path style="opacity:0.6303;fill:#F1F2F2;" d="M1950.24,1833.51c0-3.7-2.98-6.7-6.65-6.7c-3.66,0-6.64,3-6.64,6.7
				c0,3.71,2.98,6.71,6.64,6.71C1947.26,1840.23,1950.24,1837.22,1950.24,1833.51z"/>
			<path style="opacity:0.5225;fill:#F1F2F2;" d="M2054.35,1772.87c0-3.71-2.97-6.71-6.64-6.71c-3.67,0-6.64,3-6.64,6.71
				c0,3.69,2.97,6.69,6.64,6.69C2051.39,1779.56,2054.35,1776.55,2054.35,1772.87z"/>
			<path style="opacity:0.7847;fill:#F1F2F2;" d="M1846.11,1894.17c0-3.7-2.98-6.7-6.64-6.7c-3.67,0-6.65,3-6.65,6.7
				c0,3.7,2.98,6.7,6.65,6.7C1843.13,1900.87,1846.11,1897.87,1846.11,1894.17z"/>
			<path style="opacity:0.9423;fill:#F1F2F2;" d="M2158.47,1408.93c0-3.68-2.96-6.69-6.64-6.69c-3.66,0-6.64,3.01-6.64,6.69
				c0,3.71,2.98,6.72,6.64,6.72C2155.51,1415.64,2158.47,1412.64,2158.47,1408.93z"/>
			<path style="opacity:0.8348;fill:#F1F2F2;" d="M2210.54,1499.92c0-3.71-2.98-6.71-6.64-6.71c-3.69,0-6.67,3-6.67,6.71
				c0,3.68,2.98,6.71,6.67,6.71C2207.56,1506.63,2210.54,1503.6,2210.54,1499.92z"/>
			<path style="opacity:0.6404;fill:#F1F2F2;" d="M2106.42,1499.92c0-3.71-2.98-6.71-6.64-6.71c-3.66,0-6.64,3-6.64,6.71
				c0,3.68,2.98,6.71,6.64,6.71C2103.44,1506.63,2106.42,1503.6,2106.42,1499.92z"/>
			<path style="opacity:0.8945;fill:#F1F2F2;" d="M2314.67,1560.56c0-3.69-2.98-6.69-6.64-6.69c-3.68,0-6.67,3-6.67,6.69
				c0,3.71,2.98,6.71,6.67,6.71C2311.69,1567.28,2314.67,1564.27,2314.67,1560.56z"/>
			<path style="opacity:0.8456;fill:#F1F2F2;" d="M2366.72,1530.24c0-3.71-2.98-6.69-6.64-6.69c-3.66,0-6.64,2.98-6.64,6.69
				c0,3.71,2.98,6.71,6.64,6.71C2363.74,1536.95,2366.72,1533.95,2366.72,1530.24z"/>
			<path style="opacity:0.9902;fill:#F1F2F2;" d="M2262.59,1287.61c0-3.69-2.98-6.69-6.64-6.69s-6.64,3-6.64,6.69
				c0,3.71,2.98,6.71,6.64,6.71S2262.59,1291.32,2262.59,1287.61z"/>
			<path style="opacity:0.7274;fill:#F1F2F2;" d="M2366.72,1105.66c0-3.69-2.98-6.69-6.64-6.69c-3.66,0-6.64,3-6.64,6.69
				c0,3.71,2.98,6.71,6.64,6.71C2363.74,1112.37,2366.72,1109.37,2366.72,1105.66z"/>
			<path style="opacity:0.9855;fill:#F1F2F2;" d="M2158.47,1226.97c0-3.71-2.96-6.71-6.64-6.71c-3.66,0-6.64,3-6.64,6.71
				c0,3.71,2.98,6.72,6.64,6.72C2155.51,1233.68,2158.47,1230.68,2158.47,1226.97z"/>
			<path style="opacity:0.5371;fill:#F1F2F2;" d="M2314.67,1075.33c0-3.71-2.98-6.72-6.64-6.72c-3.68,0-6.67,3-6.67,6.72
				c0,3.71,2.98,6.71,6.67,6.71C2311.69,1082.05,2314.67,1079.04,2314.67,1075.33z"/>
			<ellipse style="opacity:0.7825;fill:#F1F2F2;" cx="2151.83" cy="1863.85" rx="6.64" ry="6.7"/>
			<path style="opacity:0.5344;fill:#F1F2F2;" d="M2418.79,1439.27c0-3.71-2.98-6.71-6.67-6.71c-3.66,0-6.64,3.01-6.64,6.71
				c0,3.69,2.98,6.69,6.64,6.69C2415.82,1445.96,2418.79,1442.96,2418.79,1439.27z"/>
			<path style="opacity:0.9922;fill:#F1F2F2;" d="M2314.67,1499.92c0-3.71-2.98-6.71-6.64-6.71c-3.68,0-6.67,3-6.67,6.71
				c0,3.68,2.98,6.71,6.67,6.71C2311.69,1506.63,2314.67,1503.6,2314.67,1499.92z"/>
			<path style="opacity:0.6301;fill:#F1F2F2;" d="M2132.44,1575.72c0-3.69-2.98-6.69-6.64-6.69c-3.66,0-6.64,3-6.64,6.69
				c0,3.71,2.98,6.72,6.64,6.72C2129.46,1582.44,2132.44,1579.43,2132.44,1575.72z"/>
			<path style="opacity:0.8077;fill:#F1F2F2;" d="M2184.52,1363.44c0-3.71-2.98-6.72-6.67-6.72c-3.66,0-6.64,3.01-6.64,6.72
				c0,3.71,2.98,6.71,6.64,6.71C2181.54,1370.16,2184.52,1367.15,2184.52,1363.44z"/>
			<path style="opacity:0.7663;fill:#F1F2F2;" d="M2470.84,1287.61c0-3.69-2.98-6.69-6.64-6.69c-3.69,0-6.64,3-6.64,6.69
				c0,3.71,2.95,6.71,6.64,6.71C2467.87,1294.33,2470.84,1291.32,2470.84,1287.61z"/>
			<path style="opacity:0.5432;fill:#F1F2F2;" d="M2574.97,1226.97c0-3.71-2.98-6.71-6.64-6.71c-3.68,0-6.66,3-6.66,6.71
				c0,3.71,2.98,6.72,6.66,6.72C2571.99,1233.68,2574.97,1230.68,2574.97,1226.97z"/>
			<path style="opacity:0.8535;fill:#F1F2F2;" d="M2679.1,1287.61c0-3.69-2.98-6.69-6.67-6.69c-3.66,0-6.64,3-6.64,6.69
				c0,3.71,2.98,6.71,6.64,6.71C2676.12,1294.33,2679.1,1291.32,2679.1,1287.61z"/>
			<path style="opacity:0.5589;fill:#F1F2F2;" d="M2679.1,1408.93c0-3.68-2.98-6.69-6.67-6.69c-3.66,0-6.64,3.01-6.64,6.69
				c0,3.71,2.98,6.72,6.64,6.72C2676.12,1415.64,2679.1,1412.64,2679.1,1408.93z"/>
			<path style="opacity:0.8499;fill:#F1F2F2;" d="M2574.97,1469.6c0-3.71-2.98-6.71-6.64-6.71c-3.68,0-6.66,3-6.66,6.71
				c0,3.68,2.98,6.69,6.66,6.69C2571.99,1476.29,2574.97,1473.28,2574.97,1469.6z"/>
			<path style="opacity:0.6091;fill:#F1F2F2;" d="M2548.95,1120.82c0-3.68-2.98-6.69-6.67-6.69c-3.66,0-6.64,3.01-6.64,6.69
				c0,3.71,2.98,6.71,6.64,6.71C2545.97,1127.53,2548.95,1124.53,2548.95,1120.82z"/>
			<path style="opacity:0.5784;fill:#F1F2F2;" d="M2783.2,1894.17c0-3.7-2.96-6.7-6.64-6.7c-3.66,0-6.64,3-6.64,6.7
				c0,3.7,2.98,6.7,6.64,6.7C2780.24,1900.87,2783.2,1897.87,2783.2,1894.17z"/>
			<path style="opacity:0.7656;fill:#F1F2F2;" d="M2783.2,1226.97c0-3.71-2.96-6.71-6.64-6.71c-3.66,0-6.64,3-6.64,6.71
				c0,3.71,2.98,6.72,6.64,6.72C2780.24,1233.68,2783.2,1230.68,2783.2,1226.97z"/>
			<path style="opacity:0.5656;fill:#F1F2F2;" d="M2366.72,1105.66c0-3.69-2.98-6.69-6.64-6.69c-3.66,0-6.64,3-6.64,6.69
				c0,3.71,2.98,6.71,6.64,6.71C2363.74,1112.37,2366.72,1109.37,2366.72,1105.66z"/>
			<path style="opacity:0.9124;fill:#F1F2F2;" d="M2757.17,1090.49c0-3.71-2.98-6.71-6.64-6.71c-3.66,0-6.64,3-6.64,6.71
				c0,3.71,2.98,6.72,6.64,6.72C2754.19,1097.21,2757.17,1094.21,2757.17,1090.49z"/>
			<path style="opacity:0.9768;fill:#F1F2F2;" d="M2340.69,1090.49c0-3.71-2.98-6.71-6.64-6.71c-3.66,0-6.64,3-6.64,6.71
				c0,3.71,2.98,6.72,6.64,6.72C2337.71,1097.21,2340.69,1094.21,2340.69,1090.49z"/>
			<path style="opacity:0.9016;fill:#F1F2F2;" d="M2548.95,1818.35c0-3.7-2.98-6.7-6.67-6.7c-3.66,0-6.64,3-6.64,6.7
				c0,3.7,2.98,6.7,6.64,6.7C2545.97,1825.05,2548.95,1822.05,2548.95,1818.35z"/>
			<path style="opacity:0.6844;fill:#F1F2F2;" d="M2574.97,1621.23c0-3.71-2.98-6.71-6.64-6.71c-3.68,0-6.66,3-6.66,6.71
				c0,3.69,2.98,6.69,6.66,6.69C2571.99,1627.92,2574.97,1624.92,2574.97,1621.23z"/>
			<path style="opacity:0.9473;fill:#F1F2F2;" d="M2991.45,1287.61c0-3.69-2.98-6.69-6.64-6.69c-3.66,0-6.64,3-6.64,6.69
				c0,3.71,2.98,6.71,6.64,6.71C2988.47,1294.33,2991.45,1291.32,2991.45,1287.61z"/>
			<path style="opacity:0.9003;fill:#F1F2F2;" d="M2887.32,1287.61c0-3.69-2.98-6.69-6.64-6.69c-3.66,0-6.64,3-6.64,6.69
				c0,3.71,2.98,6.71,6.64,6.71C2884.35,1294.33,2887.32,1291.32,2887.32,1287.61z"/>
			<path style="opacity:0.935;fill:#F1F2F2;" d="M2783.2,1348.28c0-3.71-2.96-6.71-6.64-6.71c-3.66,0-6.64,3-6.64,6.71
				c0,3.69,2.98,6.72,6.64,6.72C2780.24,1355,2783.2,1351.97,2783.2,1348.28z"/>
			<path style="opacity:0.5725;fill:#F1F2F2;" d="M2783.2,1590.91c0-3.71-2.96-6.71-6.64-6.71c-3.66,0-6.64,3-6.64,6.71
				c0,3.69,2.98,6.69,6.64,6.69C2780.24,1597.6,2783.2,1594.6,2783.2,1590.91z"/>
			<path style="opacity:0.7228;fill:#F1F2F2;" d="M2809.25,1575.72c0-3.69-2.98-6.69-6.67-6.69c-3.66,0-6.64,3-6.64,6.69
				c0,3.71,2.98,6.72,6.64,6.72C2806.27,1582.44,2809.25,1579.43,2809.25,1575.72z"/>
			<path style="opacity:0.7894;fill:#F1F2F2;" d="M3199.7,1712.2c0-3.69-2.98-6.69-6.64-6.69c-3.69,0-6.66,3-6.66,6.69
				c0,3.71,2.98,6.71,6.66,6.71C3196.72,1718.91,3199.7,1715.91,3199.7,1712.2z"/>
			<path style="opacity:0.8898;fill:#F1F2F2;" d="M3095.58,1651.55c0-3.71-2.98-6.71-6.64-6.71c-3.69,0-6.64,3-6.64,6.71
				c0,3.71,2.96,6.71,6.64,6.71C3092.6,1658.27,3095.58,1655.26,3095.58,1651.55z"/>
			<path style="opacity:0.5427;fill:#F1F2F2;" d="M2939.4,1257.29c0-3.69-2.98-6.69-6.64-6.69c-3.69,0-6.67,3-6.67,6.69
				c0,3.71,2.98,6.72,6.67,6.72C2936.42,1264.01,2939.4,1261,2939.4,1257.29z"/>
			<path style="opacity:0.8321;fill:#F1F2F2;" d="M3095.58,1408.93c0-3.68-2.98-6.69-6.64-6.69c-3.69,0-6.64,3.01-6.64,6.69
				c0,3.71,2.96,6.72,6.64,6.72C3092.6,1415.64,3095.58,1412.64,3095.58,1408.93z"/>
			<path style="opacity:0.5515;fill:#F1F2F2;" d="M2991.45,1105.66c0-3.69-2.98-6.69-6.64-6.69c-3.66,0-6.64,3-6.64,6.69
				c0,3.71,2.98,6.71,6.64,6.71C2988.47,1112.37,2991.45,1109.37,2991.45,1105.66z"/>
			<path style="opacity:0.7361;fill:#F1F2F2;" d="M2783.2,1226.97c0-3.71-2.96-6.71-6.64-6.71c-3.66,0-6.64,3-6.64,6.71
				c0,3.71,2.98,6.72,6.64,6.72C2780.24,1233.68,2783.2,1230.68,2783.2,1226.97z"/>
			<path style="opacity:0.5694;fill:#F1F2F2;" d="M3095.58,1166.32c0-3.71-2.98-6.71-6.64-6.71c-3.69,0-6.66,3-6.66,6.71
				c0,3.69,2.98,6.69,6.66,6.69C3092.6,1173.01,3095.58,1170.01,3095.58,1166.32z"/>
			<path style="opacity:0.7041;fill:#F1F2F2;" d="M2887.32,1287.61c0-3.69-2.98-6.69-6.64-6.69c-3.66,0-6.64,3-6.64,6.69
				c0,3.71,2.98,6.71,6.64,6.71C2884.35,1294.33,2887.32,1291.32,2887.32,1287.61z"/>
			<path style="opacity:0.9472;fill:#F1F2F2;" d="M3251.75,1075.33c0-3.71-2.98-6.72-6.64-6.72c-3.66,0-6.64,3-6.64,6.72
				c0,3.71,2.98,6.71,6.64,6.71C3248.77,1082.05,3251.75,1079.04,3251.75,1075.33z"/>
			<path style="opacity:0.988;fill:#F1F2F2;" d="M3199.7,1166.32c0-3.71-2.98-6.71-6.64-6.71c-3.69,0-6.66,3-6.66,6.71
				c0,3.69,2.98,6.69,6.66,6.69C3196.72,1173.01,3199.7,1170.01,3199.7,1166.32z"/>
			<ellipse style="opacity:0.5764;fill:#F1F2F2;" cx="2984.81" cy="1863.85" rx="6.64" ry="6.7"/>
			<path style="opacity:0.6501;fill:#F1F2F2;" d="M2887.32,1772.87c0-3.71-2.98-6.71-6.64-6.71c-3.66,0-6.64,3-6.64,6.71
				c0,3.69,2.98,6.69,6.64,6.69C2884.35,1779.56,2887.32,1776.55,2887.32,1772.87z"/>
			<path style="opacity:0.6553;fill:#F1F2F2;" d="M3303.83,1772.87c0-3.71-2.98-6.71-6.66-6.71c-3.66,0-6.64,3-6.64,6.71
				c0,3.69,2.98,6.69,6.64,6.69C3300.85,1779.56,3303.83,1776.55,3303.83,1772.87z"/>
			<path style="opacity:0.6531;fill:#F1F2F2;" d="M3407.93,1469.6c0-3.71-2.95-6.71-6.64-6.71c-3.66,0-6.64,3-6.64,6.71
				c0,3.68,2.98,6.69,6.64,6.69C3404.98,1476.29,3407.93,1473.28,3407.93,1469.6z"/>
			<path style="opacity:0.7985;fill:#F1F2F2;" d="M3512.06,1530.24c0-3.71-2.98-6.69-6.64-6.69c-3.66,0-6.64,2.98-6.64,6.69
				c0,3.71,2.98,6.71,6.64,6.71C3509.08,1536.95,3512.06,1533.95,3512.06,1530.24z"/>
			<path style="opacity:0.8668;fill:#F1F2F2;" d="M2965.42,1575.72c0-3.69-2.98-6.69-6.64-6.69c-3.69,0-6.64,3-6.64,6.69
				c0,3.71,2.95,6.72,6.64,6.72C2962.45,1582.44,2965.42,1579.43,2965.42,1575.72z"/>
			<path style="opacity:0.8785;fill:#F1F2F2;" d="M2991.45,1621.23c0-3.71-2.98-6.71-6.64-6.71c-3.66,0-6.64,3-6.64,6.71
				c0,3.69,2.98,6.69,6.64,6.69C2988.47,1627.92,2991.45,1624.92,2991.45,1621.23z"/>
			<path style="opacity:0.74;fill:#F1F2F2;" d="M2965.42,1333.12c0-3.71-2.98-6.72-6.64-6.72c-3.69,0-6.64,3.01-6.64,6.72
				c0,3.69,2.95,6.69,6.64,6.69C2962.45,1339.81,2965.42,1336.81,2965.42,1333.12z"/>
			<path style="opacity:0.9974;fill:#F1F2F2;" d="M2991.45,1317.96c0-3.71-2.98-6.71-6.64-6.71c-3.66,0-6.64,3-6.64,6.71
				c0,3.69,2.98,6.69,6.64,6.69C2988.47,1324.65,2991.45,1321.65,2991.45,1317.96z"/>
			<path style="opacity:0.9965;fill:#F1F2F2;" d="M3017.48,1363.44c0-3.71-2.98-6.72-6.64-6.72c-3.66,0-6.64,3.01-6.64,6.72
				c0,3.71,2.98,6.71,6.64,6.71C3014.5,1370.16,3017.48,1367.15,3017.48,1363.44z"/>
			<path style="opacity:0.5958;fill:#F1F2F2;" d="M2965.42,1363.44c0-3.71-2.98-6.72-6.64-6.72c-3.69,0-6.64,3.01-6.64,6.72
				c0,3.71,2.95,6.71,6.64,6.71C2962.45,1370.16,2965.42,1367.15,2965.42,1363.44z"/>
			<path style="opacity:0.502;fill:#F1F2F2;" d="M3407.93,1075.33c0-3.71-2.95-6.72-6.64-6.72c-3.66,0-6.64,3-6.64,6.72
				c0,3.71,2.98,6.71,6.64,6.71C3404.98,1082.05,3407.93,1079.04,3407.93,1075.33z"/>
			<path style="opacity:0.8656;fill:#F1F2F2;" d="M3407.93,1135.98c0-3.69-2.95-6.69-6.64-6.69c-3.66,0-6.64,3-6.64,6.69
				c0,3.71,2.98,6.71,6.64,6.71C3404.98,1142.69,3407.93,1139.69,3407.93,1135.98z"/>
			<path style="opacity:0.6714;fill:#F1F2F2;" d="M3225.73,1575.72c0-3.69-2.98-6.69-6.64-6.69c-3.69,0-6.64,3-6.64,6.69
				c0,3.71,2.95,6.72,6.64,6.72C3222.75,1582.44,3225.73,1579.43,3225.73,1575.72z"/>
			<path style="opacity:0.9386;fill:#F1F2F2;" d="M3173.68,1606.07c0-3.71-2.98-6.71-6.67-6.71c-3.66,0-6.64,3-6.64,6.71
				c0,3.69,2.98,6.69,6.64,6.69C3170.7,1612.76,3173.68,1609.76,3173.68,1606.07z"/>
			<path style="opacity:0.8257;fill:#F1F2F2;" d="M3303.83,1651.55c0-3.71-2.98-6.71-6.66-6.71c-3.66,0-6.64,3-6.64,6.71
				c0,3.71,2.98,6.71,6.64,6.71C3300.85,1658.27,3303.83,1655.26,3303.83,1651.55z"/>
			<path style="opacity:0.8822;fill:#F1F2F2;" d="M3199.7,1712.2c0-3.69-2.98-6.69-6.64-6.69c-3.69,0-6.66,3-6.66,6.69
				c0,3.71,2.98,6.71,6.66,6.71C3196.72,1718.91,3199.7,1715.91,3199.7,1712.2z"/>
			<path style="opacity:0.7249;fill:#F1F2F2;" d="M3095.58,1651.55c0-3.71-2.98-6.71-6.64-6.71c-3.69,0-6.64,3-6.64,6.71
				c0,3.71,2.96,6.71,6.64,6.71C3092.6,1658.27,3095.58,1655.26,3095.58,1651.55z"/>
			<path style="opacity:0.85;fill:#F1F2F2;" d="M3512.06,1287.61c0-3.69-2.98-6.69-6.64-6.69c-3.66,0-6.64,3-6.64,6.69
				c0,3.71,2.98,6.71,6.64,6.71C3509.08,1294.33,3512.06,1291.32,3512.06,1287.61z"/>
			<path style="opacity:0.7173;fill:#F1F2F2;" d="M3512.06,1408.93c0-3.68-2.98-6.69-6.64-6.69c-3.66,0-6.64,3.01-6.64,6.69
				c0,3.71,2.98,6.72,6.64,6.72C3509.08,1415.64,3512.06,1412.64,3512.06,1408.93z"/>
			<path style="opacity:0.7483;fill:#F1F2F2;" d="M3561.4,1384c-1.1,0.8-2.44,1.32-3.93,1.32c-3.66,0-6.64-3-6.64-6.72
				c0-3.71,2.98-6.71,6.64-6.71c1.49,0,2.83,0.51,3.93,1.32V1384z"/>
			<path style="opacity:0.9308;fill:#F1F2F2;" d="M3095.58,1166.32c0-3.71-2.98-6.71-6.64-6.71c-3.69,0-6.64,3-6.64,6.71
				c0,3.69,2.96,6.69,6.64,6.69C3092.6,1173.01,3095.58,1170.01,3095.58,1166.32z"/>
			<path style="opacity:0.9474;fill:#F1F2F2;" d="M3512.06,1166.32c0-3.71-2.98-6.71-6.64-6.71c-3.66,0-6.64,3-6.64,6.71
				c0,3.69,2.98,6.69,6.64,6.69C3509.08,1173.01,3512.06,1170.01,3512.06,1166.32z"/>
			<path style="opacity:0.5499;fill:#F1F2F2;" d="M3407.93,1590.91c0-3.71-2.95-6.71-6.64-6.71c-3.66,0-6.64,3-6.64,6.71
				c0,3.69,2.98,6.69,6.64,6.69C3404.98,1597.6,3407.93,1594.6,3407.93,1590.91z"/>
			<path style="opacity:0.5903;fill:#F1F2F2;" d="M3407.93,1348.28c0-3.71-2.95-6.71-6.64-6.71c-3.66,0-6.64,3-6.64,6.71
				c0,3.69,2.98,6.72,6.64,6.72C3404.98,1355,3407.93,1351.97,3407.93,1348.28z"/>
		</g>
		<g style="opacity:0.51;">
			<g>
				<path style="opacity:0.5653;fill:#F1F2F2;" d="M2152.94,571.11l-26.59-15.48v-30.98l0.29-0.15l26.29-15.33l26.59,15.48v30.98
					l-0.27,0.15L2152.94,571.11z M2127.47,554.97l25.47,14.84l25.49-14.84v-29.66l-25.49-14.84l-25.47,14.84V554.97z"/>
			</g>
			<g>
				<path style="opacity:0.7657;fill:#F1F2F2;" d="M1736.46,662.1l-0.28-0.17l-104.39-60.81V479.17l0.28-0.17l104.4-60.82l0.28,0.17
					l104.4,60.82v121.95l-0.28,0.17L1736.46,662.1z M1632.89,600.48l103.57,60.33l103.56-60.33V479.8l-103.56-60.33l-103.57,60.33
					V600.48z"/>
			</g>
			<g>
				<path style="opacity:0.5793;fill:#F1F2F2;" d="M1736.46,571.11l-26.59-15.48v-30.98l0.28-0.15l26.31-15.33l26.59,15.48v30.98
					l-0.28,0.15L1736.46,571.11z M1710.99,554.97l25.47,14.84l25.48-14.84v-29.66l-25.48-14.84l-25.47,14.84V554.97z"/>
			</g>
			<g>
				<path style="opacity:0.901;fill:#F1F2F2;" d="M1944.7,965.37l-52.61-30.66v-61.28l0.28-0.17l52.33-30.49l52.61,30.66v61.28
					l-0.27,0.17L1944.7,965.37z M1893.2,934.07l51.5,30.01l51.51-30.01v-60.01l-51.51-30.01l-51.5,30.01V934.07z"/>
			</g>
			<g>
				<path style="opacity:0.8562;fill:#F1F2F2;" d="M1944.7,1026.02l-104.68-60.96V843.08l0.28-0.15l104.4-60.82l104.68,60.96v121.97
					l-0.27,0.15L1944.7,1026.02z M1841.14,964.4l103.56,60.33l103.58-60.33V843.74l-103.58-60.33l-103.56,60.33V964.4z"/>
			</g>
			<g>
				<path style="opacity:0.9361;fill:#F1F2F2;" d="M2152.94,662.1l-0.27-0.17l-208.52-121.46V297.2l0.28-0.16l208.51-121.47
					l0.29,0.16l208.52,121.47v243.27l-0.29,0.15L2152.94,662.1z M1945.26,539.81l207.68,120.99l207.69-120.99V297.84l-207.69-120.99
					l-207.68,120.99V539.81z"/>
			</g>
			<g>
				<path style="opacity:0.6204;fill:#F1F2F2;" d="M1944.7,419.47l-0.27-0.17l-104.41-60.82V236.54l0.28-0.16l104.4-60.82l0.28,0.16
					l104.4,60.82v121.95l-0.27,0.17L1944.7,419.47z M1841.14,357.85l103.56,60.33l103.58-60.33V237.19l-103.58-60.33l-103.56,60.33
					V357.85z"/>
			</g>
			<g>
				<path style="opacity:0.9207;fill:#F1F2F2;" d="M2361.19,662.1l-0.27-0.17l-104.4-60.81V479.17l0.27-0.17l104.4-60.82l0.27,0.17
					l104.39,60.82v121.95l-0.27,0.17L2361.19,662.1z M2257.63,600.48l103.56,60.33l103.56-60.33V479.8l-103.56-60.33l-103.56,60.33
					V600.48z"/>
			</g>
			<g>
				<path style="opacity:0.7779;fill:#F1F2F2;" d="M2152.94,722.75l-52.61-30.64v-61.3l0.29-0.17l52.32-30.49l52.61,30.66v61.3
					l-0.27,0.14L2152.94,722.75z M2101.45,691.45l51.49,30.01l51.51-30.01v-60.01l-51.51-30.01l-51.49,30.01V691.45z"/>
			</g>
			<g>
				<path style="opacity:0.6118;fill:#F1F2F2;" d="M1944.7,571.11l-26.58-15.48v-30.98l0.27-0.15l26.31-15.33l26.59,15.48v30.98
					l-0.28,0.15L1944.7,571.11z M1919.22,554.97l25.47,14.84l25.47-14.84v-29.66l-25.47-14.84l-25.47,14.84V554.97z"/>
			</g>
			<g>
				<path style="opacity:0.6984;fill:#F1F2F2;" d="M2361.19,601.43l-52.61-30.64v-61.3l0.27-0.15l52.34-30.49l52.61,30.64v61.3
					l-0.27,0.17L2361.19,601.43z M2309.68,570.13l51.51,30.01l51.51-30.01v-60.01l-51.51-29.98l-51.51,29.98V570.13z"/>
			</g>
			<g>
				<path style="opacity:0.8157;fill:#F1F2F2;" d="M2361.19,904.73l-0.27-0.17l-104.4-60.82V721.79l0.27-0.17l104.4-60.82l0.27,0.17
					l104.39,60.82v121.95l-0.27,0.15L2361.19,904.73z M2257.63,843.08l103.56,60.35l103.56-60.35V722.43l-103.56-60.33
					l-103.56,60.33V843.08z"/>
			</g>
			<g>
				<polygon style="opacity:0.5715;fill:#F1F2F2;" points="2014.72,1065.52 1945.26,1025.06 1945.26,783.07 2152.94,662.1 
					2360.63,783.07 2360.63,1025.06 2291.17,1065.52 2293.39,1065.52 2361.46,1025.87 2361.75,1025.7 2361.75,782.44 
					2153.23,660.98 2152.94,660.81 1944.43,782.27 1944.15,782.44 1944.15,1025.7 2012.5,1065.52 				"/>
			</g>
			<g>
				<polygon style="opacity:0.8677;fill:#F1F2F2;" points="2085.15,1065.52 2152.94,1026.02 2220.74,1065.52 2222.96,1065.52 
					2152.94,1024.72 2082.93,1065.52 				"/>
			</g>
			<g>
				<polygon style="opacity:0.5475;fill:#F1F2F2;" points="1945.26,1065.52 1945.26,1025.7 2152.94,904.73 2360.63,1025.7 
					2360.63,1065.52 2361.75,1065.52 2361.75,1025.06 2153.23,903.58 2152.94,903.43 1944.43,1024.89 1944.15,1025.06 
					1944.15,1065.52 				"/>
			</g>
			<g>
				<path style="opacity:0.8834;fill:#F1F2F2;" d="M2152.94,1026.02l-104.66-60.96V843.08l0.27-0.15l104.4-60.82l104.69,60.96
					v121.97l-0.29,0.15L2152.94,1026.02z M2049.37,964.4l103.56,60.33l103.56-60.33V843.74l-103.56-60.33l-103.56,60.33V964.4z"/>
			</g>
			<g>
				<polygon style="opacity:0.5245;fill:#F1F2F2;" points="2327.09,1065.52 2309.68,1055.39 2309.68,995.38 2361.19,965.37 
					2412.7,995.38 2412.7,1055.39 2395.3,1065.52 2397.52,1065.52 2413.8,1056.02 2413.8,994.72 2361.19,964.08 2308.58,994.72 
					2308.58,1056.02 2324.86,1065.52 				"/>
			</g>
			<g>
				<polygon style="opacity:0.7529;fill:#F1F2F2;" points="2085.15,1065.52 2152.94,1026.02 2220.74,1065.52 2222.96,1065.52 
					2152.94,1024.72 2082.93,1065.52 				"/>
			</g>
			<g>
				<path style="opacity:0.8927;fill:#F1F2F2;" d="M2152.94,328.49L2126.35,313v-30.97l0.29-0.16l26.29-15.33l26.59,15.49V313
					l-0.27,0.17L2152.94,328.49z M2127.47,312.36l25.47,14.85l25.49-14.85v-29.67l-25.49-14.84l-25.47,14.84V312.36z"/>
			</g>
			<g>
				<path style="opacity:0.8384;fill:#F1F2F2;" d="M2569.44,358.83l-52.61-30.66v-61.29l0.27-0.16l52.34-30.5l52.61,30.65v61.29
					l-0.29,0.17L2569.44,358.83z M2517.93,327.52l51.51,30.02l51.49-30.02v-60l-51.49-30.01l-51.51,30.01V327.52z"/>
			</g>
			<g>
				<path style="opacity:0.6654;fill:#F1F2F2;" d="M2361.19,722.75l-52.61-30.64v-61.3l0.27-0.17l52.34-30.49l52.61,30.66v61.3
					l-0.27,0.14L2361.19,722.75z M2309.68,691.45l51.51,30.01l51.51-30.01v-60.01l-51.51-30.01l-51.51,30.01V691.45z"/>
			</g>
			<g>
				<path style="opacity:0.6262;fill:#F1F2F2;" d="M2152.94,571.11l-26.59-15.48v-30.98l0.29-0.15l26.29-15.33l26.59,15.48v30.98
					l-0.27,0.15L2152.94,571.11z M2127.47,554.97l25.47,14.84l25.49-14.84v-29.66l-25.49-14.84l-25.47,14.84V554.97z"/>
			</g>
			<g>
				<path style="opacity:0.5193;fill:#F1F2F2;" d="M2152.94,813.74l-26.59-15.5v-30.96l0.29-0.17l26.29-15.31l26.59,15.48v30.96
					l-0.27,0.17L2152.94,813.74z M2127.47,797.6l25.47,14.84l25.49-14.84v-29.69l-25.49-14.84l-25.47,14.84V797.6z"/>
			</g>
			<g>
				<path style="opacity:0.9905;fill:#F1F2F2;" d="M2569.44,904.73l-0.29-0.17l-104.4-60.82V721.79l0.27-0.17l104.42-60.82
					l0.27,0.17l104.4,60.82v121.95l-0.27,0.15L2569.44,904.73z M2465.85,843.08l103.59,60.35l103.56-60.35V722.43l-103.56-60.33
					l-103.59,60.33V843.08z"/>
			</g>
			<g>
				<path style="opacity:0.517;fill:#F1F2F2;" d="M2569.44,1056.36l-26.58-15.5v-30.96l26.58-15.5l26.56,15.5v30.96L2569.44,1056.36
					z M2543.95,1040.23l25.49,14.84l25.47-14.84v-29.69l-25.47-14.85l-25.49,14.85V1040.23z"/>
			</g>
			<g>
				<polygon style="opacity:0.6479;fill:#F1F2F2;" points="2465.85,1065.52 2465.85,965.05 2569.44,904.73 2673.01,965.05 
					2673.01,1065.52 2674.11,1065.52 2674.11,964.4 2569.71,903.58 2569.44,903.43 2465.02,964.25 2464.75,964.4 2464.75,1065.52 
									"/>
			</g>
			<g>
				<path style="opacity:0.9857;fill:#F1F2F2;" d="M2777.67,358.83l-52.61-30.66v-61.29l0.29-0.16l52.32-30.5l52.61,30.65v61.29
					l-0.27,0.17L2777.67,358.83z M2726.16,327.52l51.51,30.02l51.52-30.02v-60l-51.52-30.01l-51.51,30.01V327.52z"/>
			</g>
			<g>
				<path style="opacity:0.7696;fill:#F1F2F2;" d="M2777.67,904.73l-0.27-0.17l-104.4-60.82V721.79l0.27-0.17l104.39-60.82
					l0.29,0.17l104.39,60.82v121.95l-0.29,0.15L2777.67,904.73z M2674.11,843.08l103.56,60.35l103.57-60.35V722.43l-103.57-60.33
					l-103.56,60.33V843.08z"/>
			</g>
			<g>
				<polygon style="opacity:0.8062;fill:#F1F2F2;" points="2431.21,1065.52 2361.75,1025.06 2361.75,783.07 2569.44,662.1 
					2777.14,783.07 2777.14,1025.06 2707.67,1065.52 2709.87,1065.52 2777.96,1025.87 2778.23,1025.7 2778.23,782.44 
					2569.71,660.98 2569.44,660.81 2360.92,782.27 2360.63,782.44 2360.63,1025.7 2428.99,1065.52 				"/>
			</g>
			<g>
				<path style="opacity:0.9977;fill:#F1F2F2;" d="M2777.67,1056.36l-26.58-15.5v-30.96l26.58-15.5l26.59,15.5v30.96
					L2777.67,1056.36z M2752.21,1040.23l25.46,14.84l25.49-14.84v-29.69l-25.49-14.85l-25.46,14.85V1040.23z"/>
			</g>
			<g>
				<polygon style="opacity:0.6323;fill:#F1F2F2;" points="2257.63,1065.52 2257.63,965.05 2361.19,904.73 2464.75,965.05 
					2464.75,1065.52 2465.85,1065.52 2465.85,964.4 2361.46,903.58 2361.19,903.43 2256.8,964.25 2256.53,964.4 2256.53,1065.52 
									"/>
			</g>
			<g>
				<path style="opacity:0.5774;fill:#F1F2F2;" d="M2361.19,1056.36l-26.59-15.5v-30.96l26.59-15.5l26.58,15.5v30.96
					L2361.19,1056.36z M2335.7,1040.23l25.49,14.84l25.49-14.84v-29.69l-25.49-14.85l-25.49,14.85V1040.23z"/>
			</g>
			<g>
				<polygon style="opacity:0.6004;fill:#F1F2F2;" points="2257.63,1065.52 2257.63,965.05 2361.19,904.73 2464.75,965.05 
					2464.75,1065.52 2465.85,1065.52 2465.85,964.4 2361.46,903.58 2361.19,903.43 2256.8,964.25 2256.53,964.4 2256.53,1065.52 
									"/>
			</g>
			<g>
				<polygon style="opacity:0.6006;fill:#F1F2F2;" points="2501.64,1065.52 2569.44,1026.02 2637.22,1065.52 2639.44,1065.52 
					2569.44,1024.72 2499.42,1065.52 				"/>
			</g>
			<g>
				<path style="opacity:0.6198;fill:#F1F2F2;" d="M2569.44,328.49L2542.86,313v-30.97l0.27-0.16l26.32-15.33l26.56,15.49V313
					l-0.27,0.17L2569.44,328.49z M2543.95,312.36l25.49,14.85l25.47-14.85v-29.67l-25.47-14.84l-25.49,14.84V312.36z"/>
			</g>
			<g>
				<path style="opacity:0.9164;fill:#F1F2F2;" d="M2569.44,571.11l-26.58-15.48v-30.98l0.27-0.15l26.32-15.33l26.56,15.48v30.98
					l-0.27,0.15L2569.44,571.11z M2543.95,554.97l25.49,14.84l25.47-14.84v-29.66l-25.47-14.84l-25.49,14.84V554.97z"/>
			</g>
			<g>
				<path style="opacity:0.5577;fill:#F1F2F2;" d="M2569.44,904.73l-0.29-0.17l-104.4-60.82V721.79l0.27-0.17l104.42-60.82
					l0.27,0.17l104.4,60.82v121.95l-0.27,0.15L2569.44,904.73z M2465.85,843.08l103.59,60.35l103.56-60.35V722.43l-103.56-60.33
					l-103.59,60.33V843.08z"/>
			</g>
			<g>
				<path style="opacity:0.6643;fill:#F1F2F2;" d="M2985.92,844.06l-52.61-30.64v-61.3l0.27-0.17l52.34-30.49l52.61,30.66v61.3
					l-0.27,0.15L2985.92,844.06z M2934.41,812.76l51.51,30.01l51.52-30.01v-60.01l-51.52-30.01l-51.51,30.01V812.76z"/>
			</g>
			<g>
				<path style="opacity:0.9482;fill:#F1F2F2;" d="M2777.67,1026.02l-104.66-60.96V843.08l0.27-0.15l104.39-60.82l104.69,60.96
					v121.97l-0.29,0.15L2777.67,1026.02z M2674.11,964.4l103.56,60.33l103.57-60.33V843.74l-103.57-60.33l-103.56,60.33V964.4z"/>
			</g>
			<g>
				<path style="opacity:0.8287;fill:#F1F2F2;" d="M2985.92,904.73l-0.27-0.17l-208.52-121.48V539.81l0.27-0.15l208.52-121.49
					l0.27,0.17l208.52,121.46v243.26l-0.27,0.17L2985.92,904.73z M2778.23,782.44l207.69,120.99l207.69-120.99V540.47
					l-207.69-120.99l-207.69,120.99V782.44z"/>
			</g>
			<g>
				<path style="opacity:0.9627;fill:#F1F2F2;" d="M2777.67,571.11l-26.58-15.48v-30.98l0.29-0.15l26.29-15.33l26.59,15.48v30.98
					l-0.27,0.15L2777.67,571.11z M2752.21,554.97l25.46,14.84l25.49-14.84v-29.66l-25.49-14.84l-25.46,14.84V554.97z"/>
			</g>
			<g>
				<path style="opacity:0.6877;fill:#F1F2F2;" d="M3194.17,662.1l-0.29-0.17l-104.39-60.81V479.17l0.27-0.17l104.42-60.82
					l0.27,0.17l104.4,60.82v121.95l-0.27,0.17L3194.17,662.1z M3090.59,600.48l103.59,60.33l103.56-60.33V479.8l-103.56-60.33
					l-103.59,60.33V600.48z"/>
			</g>
			<g>
				<path style="opacity:0.5544;fill:#F1F2F2;" d="M2985.92,965.37l-52.61-30.66v-61.28l0.27-0.17l52.34-30.49l52.61,30.66v61.28
					l-0.27,0.17L2985.92,965.37z M2934.41,934.07l51.51,30.01l51.52-30.01v-60.01l-51.52-30.01l-51.51,30.01V934.07z"/>
			</g>
			<g>
				<path style="opacity:0.8016;fill:#F1F2F2;" d="M2985.92,783.41l-0.27-0.17l-104.42-60.82V600.48l0.29-0.17l104.4-60.82
					l0.27,0.17l104.39,60.82v121.95l-0.27,0.17L2985.92,783.41z M2882.36,721.79l103.56,60.33l103.57-60.33V601.11l-103.57-60.33
					l-103.56,60.33V721.79z"/>
			</g>
			<g>
				<polygon style="opacity:0.5003;fill:#F1F2F2;" points="2918.12,1065.52 2985.92,1026.02 3053.72,1065.52 3055.94,1065.52 
					2985.92,1024.72 2915.9,1065.52 				"/>
			</g>
			<g>
				<polygon style="opacity:0.7569;fill:#F1F2F2;" points="2674.11,1065.52 2674.11,965.05 2777.67,904.73 2881.24,965.05 
					2881.24,1065.52 2882.36,1065.52 2882.36,964.4 2777.96,903.58 2777.67,903.43 2673.28,964.25 2673.01,964.4 2673.01,1065.52 
									"/>
			</g>
			<g>
				<path style="opacity:0.9339;fill:#F1F2F2;" d="M2985.92,1026.02l-104.69-60.96V843.08l0.29-0.15l104.4-60.82l104.66,60.96
					v121.97l-0.27,0.15L2985.92,1026.02z M2882.36,964.4l103.56,60.33l103.57-60.33V843.74l-103.57-60.33l-103.56,60.33V964.4z"/>
			</g>
			<g>
				<polygon style="opacity:0.6722;fill:#F1F2F2;" points="3160.04,1065.52 3142.66,1055.39 3142.66,995.38 3194.17,965.37 
					3245.66,995.38 3245.66,1055.39 3228.28,1065.52 3230.48,1065.52 3246.79,1056.02 3246.79,994.72 3194.17,964.08 
					3141.54,994.72 3141.54,1056.02 3157.85,1065.52 				"/>
			</g>
			<g>
				<polygon style="opacity:0.5645;fill:#F1F2F2;" points="2918.12,1065.52 2985.92,1026.02 3053.72,1065.52 3055.94,1065.52 
					2985.92,1024.72 2915.9,1065.52 				"/>
			</g>
			<g>
				<path style="opacity:0.7115;fill:#F1F2F2;" d="M2985.92,328.49L2959.34,313v-30.97l0.27-0.16l26.32-15.33l26.59,15.49V313
					l-0.29,0.17L2985.92,328.49z M2960.44,312.36l25.49,14.85l25.47-14.85v-29.67l-25.47-14.84l-25.49,14.84V312.36z"/>
			</g>
			<g>
				<path style="opacity:0.6307;fill:#F1F2F2;" d="M2985.92,419.47l-0.27-0.17l-104.42-60.82V236.54l0.29-0.16l104.4-60.82
					l0.27,0.16l104.39,60.82v121.95l-0.27,0.17L2985.92,419.47z M2882.36,357.85l103.56,60.33l103.57-60.33V237.19l-103.57-60.33
					l-103.56,60.33V357.85z"/>
			</g>
			<g>
				<path style="opacity:0.9278;fill:#F1F2F2;" d="M3402.4,419.47l-0.27-0.17l-104.4-60.82V236.54l0.27-0.16l104.4-60.82
					l104.69,60.97v121.95l-0.29,0.17L3402.4,419.47z M3298.84,357.85l103.56,60.33l103.57-60.33V237.19l-103.57-60.33l-103.56,60.33
					V357.85z"/>
			</g>
			<g>
				<path style="opacity:0.6392;fill:#F1F2F2;" d="M3402.4,662.1l-104.66-60.99V479.17l0.27-0.17l104.4-60.82l104.69,60.99v121.95
					l-0.29,0.17L3402.4,662.1z M3298.84,600.48l103.56,60.33l103.57-60.33V479.8l-103.57-60.33l-103.56,60.33V600.48z"/>
			</g>
			<g>
				<path style="opacity:0.8937;fill:#F1F2F2;" d="M3194.17,904.73l-0.29-0.17l-208.52-121.48V539.81l0.29-0.15l208.52-121.49
					l0.27,0.17l208.52,121.46v243.26l-0.27,0.17L3194.17,904.73z M2986.49,782.44l207.69,120.99l207.69-120.99V540.47
					l-207.69-120.99l-207.69,120.99V782.44z"/>
			</g>
			<g>
				<path style="opacity:0.6526;fill:#F1F2F2;" d="M2985.92,571.11l-26.59-15.48v-30.98l0.27-0.15l26.32-15.33l26.59,15.48v30.98
					l-0.29,0.15L2985.92,571.11z M2960.44,554.97l25.49,14.84l25.47-14.84v-29.66l-25.47-14.84l-25.49,14.84V554.97z"/>
			</g>
			<g>
				<path style="opacity:0.6213;fill:#F1F2F2;" d="M2985.92,813.74l-26.59-15.5v-30.96l0.27-0.17l26.32-15.31l26.59,15.48v30.96
					l-0.29,0.17L2985.92,813.74z M2960.44,797.6l25.49,14.84l25.47-14.84v-29.69l-25.47-14.84l-25.49,14.84V797.6z"/>
			</g>
			<g>
				<path style="opacity:0.9916;fill:#F1F2F2;" d="M3402.4,1056.36l-26.59-15.5v-30.96l26.59-15.5l26.59,15.5v30.96L3402.4,1056.36z
					 M3376.94,1040.23l25.46,14.84l25.49-14.84v-29.69l-25.49-14.85l-25.46,14.85V1040.23z"/>
			</g>
			<g>
				<path style="opacity:0.5206;fill:#F1F2F2;" d="M3194.17,571.11l-26.59-15.48v-30.98l0.27-0.15l26.32-15.33l26.56,15.48v30.98
					l-0.27,0.15L3194.17,571.11z M3168.69,554.97l25.49,14.84l25.46-14.84v-29.66l-25.46-14.84l-25.49,14.84V554.97z"/>
			</g>
			<g>
				<path style="opacity:0.5092;fill:#F1F2F2;" d="M3194.17,662.1l-0.29-0.17l-104.39-60.81V479.17l0.27-0.17l104.42-60.82
					l0.27,0.17l104.4,60.82v121.95l-0.27,0.17L3194.17,662.1z M3090.59,600.48l103.59,60.33l103.56-60.33V479.8l-103.56-60.33
					l-103.59,60.33V600.48z"/>
			</g>
			<g>
				<polygon style="opacity:0.6455;fill:#F1F2F2;" points="3562.51,875.38 3507.09,843.08 3507.09,722.43 3562.51,690.13 
					3562.51,688.86 3506.26,721.62 3505.97,721.79 3505.97,843.74 3562.51,876.68 				"/>
			</g>
			<g>
				<path style="opacity:0.5075;fill:#F1F2F2;" d="M3402.4,1026.02l-104.66-60.96V843.08l0.27-0.15l104.4-60.82l104.69,60.96v121.97
					l-0.29,0.15L3402.4,1026.02z M3298.84,964.4l103.56,60.33l103.57-60.33V843.74l-103.57-60.33l-103.56,60.33V964.4z"/>
			</g>
			<g>
				<polygon style="opacity:0.6536;fill:#F1F2F2;" points="3562.51,814.71 3559.14,812.76 3559.14,752.75 3562.51,750.8 
					3562.51,749.5 3558.31,751.94 3558.04,752.12 3558.04,813.42 3562.51,816.01 				"/>
			</g>
			<g>
				<polygon style="opacity:0.716;fill:#F1F2F2;" points="3334.6,1065.52 3402.4,1026.02 3470.2,1065.52 3472.42,1065.52 
					3402.4,1024.72 3332.38,1065.52 				"/>
			</g>
			<g>
				<polygon style="opacity:0.6878;fill:#F1F2F2;" points="3090.59,1065.52 3090.59,965.05 3194.17,904.73 3297.74,965.05 
					3297.74,1065.52 3298.84,1065.52 3298.84,964.4 3194.44,903.58 3194.17,903.43 3089.78,964.25 3089.49,964.4 3089.49,1065.52 
									"/>
			</g>
			<g>
				<path style="opacity:0.8538;fill:#F1F2F2;" d="M3402.4,1026.02l-104.66-60.96V843.08l0.27-0.15l104.4-60.82l104.69,60.96v121.97
					l-0.29,0.15L3402.4,1026.02z M3298.84,964.4l103.56,60.33l103.57-60.33V843.74l-103.57-60.33l-103.56,60.33V964.4z"/>
			</g>
			<g>
				<polygon style="opacity:0.811;fill:#F1F2F2;" points="3562.51,875.38 3402.96,782.44 3402.96,540.47 3562.51,447.53 
					3562.51,446.23 3402.14,539.66 3401.86,539.81 3401.86,783.07 3562.51,876.68 				"/>
			</g>
			<g>
				<polygon style="opacity:0.6353;fill:#F1F2F2;" points="3472.42,1065.52 3402.96,1025.06 3402.96,783.07 3562.51,690.13 
					3562.51,688.86 3402.14,782.27 3401.86,782.44 3401.86,1025.7 3470.2,1065.52 				"/>
			</g>
			<g>
				<polygon style="opacity:0.9972;fill:#F1F2F2;" points="3562.51,754.07 3507.09,721.79 3507.09,601.11 3562.51,568.84 
					3562.51,567.55 3506.26,600.31 3505.97,600.48 3505.97,722.43 3562.51,755.36 				"/>
			</g>
			<g>
				<polygon style="opacity:0.9775;fill:#F1F2F2;" points="3542.86,1065.52 3562.51,1054.07 3562.51,1052.77 3540.64,1065.52 				
					"/>
			</g>
			<g>
				<polygon style="opacity:0.6343;fill:#F1F2F2;" points="3542.86,1065.52 3562.51,1054.07 3562.51,1052.77 3540.64,1065.52 				
					"/>
			</g>
			<g>
				<polygon style="opacity:0.8543;fill:#F1F2F2;" points="3562.51,390.15 3507.09,357.85 3507.09,237.19 3562.51,204.9 
					3562.51,203.62 3506.26,236.38 3505.97,236.54 3505.97,358.49 3562.51,391.42 				"/>
			</g>
			<g>
				<polygon style="opacity:0.6795;fill:#F1F2F2;" points="3507.09,1065.52 3507.09,965.05 3562.51,932.76 3562.51,931.46 
					3506.26,964.25 3505.97,964.4 3505.97,1065.52 				"/>
			</g>
			<path style="opacity:0.8144;fill:#F1F2F2;" d="M2133.55,555.31c0,3.69-2.98,6.69-6.64,6.69c-3.66,0-6.64-3-6.64-6.69
				c0-3.71,2.98-6.71,6.64-6.71C2130.58,548.6,2133.55,551.6,2133.55,555.31z"/>
			<path style="opacity:0.728;fill:#F1F2F2;" d="M2159.58,570.47c0,3.69-2.95,6.69-6.64,6.69c-3.66,0-6.64-3-6.64-6.69
				c0-3.71,2.98-6.71,6.64-6.71C2156.62,563.76,2159.58,566.76,2159.58,570.47z"/>
			<path style="opacity:0.7587;fill:#F1F2F2;" d="M2185.63,555.31c0,3.69-2.98,6.69-6.67,6.69c-3.66,0-6.64-3-6.64-6.69
				c0-3.71,2.98-6.71,6.64-6.71C2182.65,548.6,2185.63,551.6,2185.63,555.31z"/>
			<path style="opacity:0.7652;fill:#F1F2F2;" d="M1743.1,661.44c0,3.71-2.96,6.72-6.64,6.72s-6.64-3-6.64-6.72
				c0-3.68,2.97-6.69,6.64-6.69S1743.1,657.76,1743.1,661.44z"/>
			<path style="opacity:0.9334;fill:#F1F2F2;" d="M1717.07,524.97c0,3.71-2.98,6.71-6.64,6.71c-3.67,0-6.65-3-6.65-6.71
				c0-3.68,2.98-6.69,6.65-6.69C1714.1,518.28,1717.07,521.28,1717.07,524.97z"/>
			<path style="opacity:0.6915;fill:#F1F2F2;" d="M2003.4,934.39c0,3.71-2.97,6.71-6.64,6.71c-3.66,0-6.64-3-6.64-6.71
				c0-3.69,2.98-6.69,6.64-6.69C2000.44,927.7,2003.4,930.7,2003.4,934.39z"/>
			<path style="opacity:0.5175;fill:#F1F2F2;" d="M1847.23,964.71c0,3.71-2.98,6.71-6.64,6.71c-3.67,0-6.65-3-6.65-6.71
				c0-3.69,2.98-6.69,6.65-6.69C1844.25,958.02,1847.23,961.03,1847.23,964.71z"/>
			<path style="opacity:0.7801;fill:#F1F2F2;" d="M2055.47,843.42c0,3.69-2.98,6.69-6.64,6.69c-3.67,0-6.64-3-6.64-6.69
				c0-3.71,2.97-6.71,6.64-6.71C2052.49,836.71,2055.47,839.71,2055.47,843.42z"/>
			<path style="opacity:0.8122;fill:#F1F2F2;" d="M1847.23,843.42c0,3.69-2.98,6.69-6.64,6.69c-3.67,0-6.65-3-6.65-6.69
				c0-3.71,2.98-6.71,6.65-6.71C1844.25,836.71,1847.23,839.71,1847.23,843.42z"/>
			<path style="opacity:0.7332;fill:#F1F2F2;" d="M1951.35,540.13c0,3.71-2.98,6.71-6.65,6.71c-3.66,0-6.64-3-6.64-6.71
				c0-3.69,2.98-6.69,6.64-6.69C1948.37,533.44,1951.35,536.44,1951.35,540.13z"/>
			<path style="opacity:0.6303;fill:#F1F2F2;" d="M1951.35,297.53c0,3.7-2.98,6.7-6.65,6.7c-3.66,0-6.64-3-6.64-6.7
				c0-3.71,2.98-6.71,6.64-6.71C1948.37,290.81,1951.35,293.81,1951.35,297.53z"/>
			<path style="opacity:0.5225;fill:#F1F2F2;" d="M2055.47,358.17c0,3.71-2.97,6.71-6.64,6.71c-3.67,0-6.64-3-6.64-6.71
				c0-3.69,2.97-6.69,6.64-6.69C2052.5,351.48,2055.47,354.48,2055.47,358.17z"/>
			<path style="opacity:0.7847;fill:#F1F2F2;" d="M1847.23,236.87c0,3.7-2.98,6.7-6.64,6.7c-3.67,0-6.65-3-6.65-6.7
				c0-3.7,2.98-6.7,6.65-6.7C1844.25,230.17,1847.23,233.17,1847.23,236.87z"/>
			<path style="opacity:0.9423;fill:#F1F2F2;" d="M2159.58,722.11c0,3.68-2.95,6.69-6.64,6.69c-3.66,0-6.64-3.01-6.64-6.69
				c0-3.71,2.98-6.72,6.64-6.72C2156.62,715.4,2159.58,718.4,2159.58,722.11z"/>
			<path style="opacity:0.8348;fill:#F1F2F2;" d="M2211.65,631.12c0,3.71-2.98,6.72-6.64,6.72c-3.69,0-6.67-3-6.67-6.72
				c0-3.68,2.98-6.71,6.67-6.71C2208.68,624.41,2211.65,627.43,2211.65,631.12z"/>
			<path style="opacity:0.6404;fill:#F1F2F2;" d="M2107.53,631.12c0,3.71-2.98,6.72-6.64,6.72c-3.66,0-6.64-3-6.64-6.72
				c0-3.68,2.98-6.71,6.64-6.71C2104.55,624.41,2107.53,627.43,2107.53,631.12z"/>
			<path style="opacity:0.8945;fill:#F1F2F2;" d="M2315.78,570.47c0,3.69-2.98,6.69-6.64,6.69c-3.69,0-6.67-3-6.67-6.69
				c0-3.71,2.98-6.71,6.67-6.71C2312.8,563.76,2315.78,566.76,2315.78,570.47z"/>
			<path style="opacity:0.8456;fill:#F1F2F2;" d="M2367.83,600.8c0,3.71-2.98,6.69-6.64,6.69c-3.66,0-6.64-2.98-6.64-6.69
				c0-3.71,2.98-6.71,6.64-6.71C2364.85,594.08,2367.83,597.09,2367.83,600.8z"/>
			<path style="opacity:0.9902;fill:#F1F2F2;" d="M2263.71,843.42c0,3.69-2.98,6.69-6.64,6.69c-3.66,0-6.64-3-6.64-6.69
				c0-3.71,2.98-6.71,6.64-6.71C2260.73,836.71,2263.71,839.71,2263.71,843.42z"/>
			<path style="opacity:0.7274;fill:#F1F2F2;" d="M2367.83,1025.38c0,3.69-2.98,6.69-6.64,6.69c-3.66,0-6.64-3-6.64-6.69
				c0-3.71,2.98-6.71,6.64-6.71C2364.85,1018.67,2367.83,1021.67,2367.83,1025.38z"/>
			<path style="opacity:0.9855;fill:#F1F2F2;" d="M2159.58,904.07c0,3.71-2.95,6.71-6.64,6.71c-3.66,0-6.64-3-6.64-6.71
				c0-3.71,2.98-6.71,6.64-6.71C2156.62,897.35,2159.58,900.36,2159.58,904.07z"/>
			<path style="opacity:0.5371;fill:#F1F2F2;" d="M2315.78,1055.7c0,3.71-2.98,6.71-6.64,6.71c-3.69,0-6.67-3-6.67-6.71
				c0-3.71,2.98-6.71,6.67-6.71C2312.8,1048.99,2315.78,1051.99,2315.78,1055.7z"/>
			<ellipse style="opacity:0.7825;fill:#F1F2F2;" cx="2152.94" cy="267.19" rx="6.64" ry="6.7"/>
			<path style="opacity:0.5344;fill:#F1F2F2;" d="M2419.91,691.76c0,3.71-2.98,6.72-6.67,6.72c-3.66,0-6.64-3.01-6.64-6.72
				c0-3.69,2.98-6.69,6.64-6.69C2416.93,685.07,2419.91,688.08,2419.91,691.76z"/>
			<path style="opacity:0.9922;fill:#F1F2F2;" d="M2315.78,631.12c0,3.71-2.98,6.72-6.64,6.72c-3.69,0-6.67-3-6.67-6.72
				c0-3.68,2.98-6.71,6.67-6.71C2312.8,624.41,2315.78,627.43,2315.78,631.12z"/>
			<path style="opacity:0.6301;fill:#F1F2F2;" d="M2133.55,555.31c0,3.69-2.98,6.69-6.64,6.69c-3.66,0-6.64-3-6.64-6.69
				c0-3.71,2.98-6.71,6.64-6.71C2130.58,548.6,2133.55,551.6,2133.55,555.31z"/>
			<path style="opacity:0.8077;fill:#F1F2F2;" d="M2185.63,767.59c0,3.71-2.98,6.71-6.67,6.71c-3.66,0-6.64-3.01-6.64-6.71
				c0-3.71,2.98-6.71,6.64-6.71C2182.65,760.88,2185.63,763.88,2185.63,767.59z"/>
			<path style="opacity:0.7663;fill:#F1F2F2;" d="M2471.96,843.42c0,3.69-2.98,6.69-6.64,6.69c-3.69,0-6.64-3-6.64-6.69
				c0-3.71,2.95-6.71,6.64-6.71C2468.98,836.71,2471.96,839.71,2471.96,843.42z"/>
			<path style="opacity:0.5432;fill:#F1F2F2;" d="M2576.09,904.07c0,3.71-2.98,6.71-6.64,6.71c-3.69,0-6.67-3-6.67-6.71
				c0-3.71,2.98-6.71,6.67-6.71C2573.1,897.35,2576.09,900.36,2576.09,904.07z"/>
			<path style="opacity:0.8535;fill:#F1F2F2;" d="M2680.21,843.42c0,3.69-2.98,6.69-6.67,6.69c-3.66,0-6.64-3-6.64-6.69
				c0-3.71,2.98-6.71,6.64-6.71C2677.23,836.71,2680.21,839.71,2680.21,843.42z"/>
			<path style="opacity:0.5589;fill:#F1F2F2;" d="M2680.21,722.11c0,3.68-2.98,6.69-6.67,6.69c-3.66,0-6.64-3.01-6.64-6.69
				c0-3.71,2.98-6.72,6.64-6.72C2677.23,715.4,2680.21,718.4,2680.21,722.11z"/>
			<path style="opacity:0.8499;fill:#F1F2F2;" d="M2576.09,661.44c0,3.71-2.98,6.72-6.64,6.72c-3.69,0-6.67-3-6.67-6.72
				c0-3.68,2.98-6.69,6.67-6.69C2573.1,654.75,2576.09,657.76,2576.09,661.44z"/>
			<path style="opacity:0.6091;fill:#F1F2F2;" d="M2550.06,1010.22c0,3.68-2.98,6.69-6.67,6.69c-3.66,0-6.64-3.01-6.64-6.69
				c0-3.71,2.98-6.72,6.64-6.72C2547.08,1003.51,2550.06,1006.51,2550.06,1010.22z"/>
			<path style="opacity:0.5784;fill:#F1F2F2;" d="M2784.31,236.87c0,3.7-2.96,6.7-6.64,6.7c-3.66,0-6.64-3-6.64-6.7
				c0-3.7,2.98-6.7,6.64-6.7C2781.36,230.17,2784.31,233.17,2784.31,236.87z"/>
			<path style="opacity:0.7656;fill:#F1F2F2;" d="M2784.31,904.07c0,3.71-2.96,6.71-6.64,6.71c-3.66,0-6.64-3-6.64-6.71
				c0-3.71,2.98-6.71,6.64-6.71C2781.36,897.35,2784.31,900.36,2784.31,904.07z"/>
			<path style="opacity:0.5656;fill:#F1F2F2;" d="M2367.83,1025.38c0,3.69-2.98,6.69-6.64,6.69c-3.66,0-6.64-3-6.64-6.69
				c0-3.71,2.98-6.71,6.64-6.71C2364.85,1018.67,2367.83,1021.67,2367.83,1025.38z"/>
			<path style="opacity:0.9124;fill:#F1F2F2;" d="M2758.29,1040.54c0,3.71-2.98,6.71-6.64,6.71c-3.66,0-6.64-3-6.64-6.71
				c0-3.71,2.98-6.71,6.64-6.71C2755.31,1033.83,2758.29,1036.83,2758.29,1040.54z"/>
			<path style="opacity:0.9768;fill:#F1F2F2;" d="M2341.81,1040.54c0,3.71-2.98,6.71-6.64,6.71c-3.66,0-6.64-3-6.64-6.71
				c0-3.71,2.98-6.71,6.64-6.71C2338.83,1033.83,2341.81,1036.83,2341.81,1040.54z"/>
			<path style="opacity:0.9016;fill:#F1F2F2;" d="M2550.06,312.69c0,3.7-2.98,6.7-6.67,6.7c-3.66,0-6.64-3-6.64-6.7
				c0-3.7,2.98-6.7,6.64-6.7C2547.08,305.99,2550.06,308.99,2550.06,312.69z"/>
			<path style="opacity:0.6844;fill:#F1F2F2;" d="M2576.09,509.81c0,3.71-2.98,6.71-6.64,6.71c-3.69,0-6.67-3-6.67-6.71
				c0-3.69,2.98-6.69,6.67-6.69C2573.1,503.12,2576.09,506.12,2576.09,509.81z"/>
			<path style="opacity:0.9473;fill:#F1F2F2;" d="M2992.56,843.42c0,3.69-2.98,6.69-6.64,6.69c-3.66,0-6.64-3-6.64-6.69
				c0-3.71,2.98-6.71,6.64-6.71C2989.59,836.71,2992.56,839.71,2992.56,843.42z"/>
			<path style="opacity:0.9003;fill:#F1F2F2;" d="M2888.44,843.42c0,3.69-2.98,6.69-6.64,6.69c-3.66,0-6.64-3-6.64-6.69
				c0-3.71,2.98-6.71,6.64-6.71C2885.46,836.71,2888.44,839.71,2888.44,843.42z"/>
			<path style="opacity:0.935;fill:#F1F2F2;" d="M2784.31,782.76c0,3.71-2.96,6.71-6.64,6.71c-3.66,0-6.64-3-6.64-6.71
				c0-3.69,2.98-6.71,6.64-6.71C2781.36,776.04,2784.31,779.07,2784.31,782.76z"/>
			<path style="opacity:0.5725;fill:#F1F2F2;" d="M2784.31,540.13c0,3.71-2.96,6.71-6.64,6.71c-3.66,0-6.64-3-6.64-6.71
				c0-3.69,2.98-6.69,6.64-6.69C2781.36,533.44,2784.31,536.44,2784.31,540.13z"/>
			<path style="opacity:0.7228;fill:#F1F2F2;" d="M2810.36,555.31c0,3.69-2.98,6.69-6.67,6.69c-3.66,0-6.64-3-6.64-6.69
				c0-3.71,2.98-6.71,6.64-6.71C2807.38,548.6,2810.36,551.6,2810.36,555.31z"/>
			<path style="opacity:0.7894;fill:#F1F2F2;" d="M3200.81,418.84c0,3.69-2.98,6.69-6.64,6.69c-3.69,0-6.66-3-6.66-6.69
				c0-3.71,2.98-6.71,6.66-6.71C3197.84,412.13,3200.81,415.13,3200.81,418.84z"/>
			<path style="opacity:0.8898;fill:#F1F2F2;" d="M3096.69,479.48c0,3.71-2.98,6.71-6.64,6.71c-3.69,0-6.64-3-6.64-6.71
				s2.96-6.71,6.64-6.71C3093.71,472.77,3096.69,475.77,3096.69,479.48z"/>
			<path style="opacity:0.5427;fill:#F1F2F2;" d="M2940.51,873.75c0,3.69-2.98,6.69-6.64,6.69c-3.69,0-6.66-3-6.66-6.69
				c0-3.71,2.98-6.71,6.66-6.71C2937.54,867.03,2940.51,870.04,2940.51,873.75z"/>
			<path style="opacity:0.8321;fill:#F1F2F2;" d="M3096.69,722.11c0,3.68-2.98,6.69-6.64,6.69c-3.69,0-6.64-3.01-6.64-6.69
				c0-3.71,2.96-6.72,6.64-6.72C3093.71,715.4,3096.69,718.4,3096.69,722.11z"/>
			<path style="opacity:0.5515;fill:#F1F2F2;" d="M2992.56,1025.38c0,3.69-2.98,6.69-6.64,6.69c-3.66,0-6.64-3-6.64-6.69
				c0-3.71,2.98-6.71,6.64-6.71C2989.59,1018.67,2992.56,1021.67,2992.56,1025.38z"/>
			<path style="opacity:0.7361;fill:#F1F2F2;" d="M2784.31,904.07c0,3.71-2.96,6.71-6.64,6.71c-3.66,0-6.64-3-6.64-6.71
				c0-3.71,2.98-6.71,6.64-6.71C2781.36,897.35,2784.31,900.36,2784.31,904.07z"/>
			<path style="opacity:0.5694;fill:#F1F2F2;" d="M3096.69,964.71c0,3.71-2.98,6.71-6.64,6.71c-3.69,0-6.66-3-6.66-6.71
				c0-3.69,2.98-6.69,6.66-6.69C3093.71,958.02,3096.69,961.03,3096.69,964.71z"/>
			<path style="opacity:0.7041;fill:#F1F2F2;" d="M2888.44,843.42c0,3.69-2.98,6.69-6.64,6.69c-3.66,0-6.64-3-6.64-6.69
				c0-3.71,2.98-6.71,6.64-6.71C2885.46,836.71,2888.44,839.71,2888.44,843.42z"/>
			<path style="opacity:0.9472;fill:#F1F2F2;" d="M3252.87,1055.7c0,3.71-2.98,6.71-6.64,6.71c-3.66,0-6.64-3-6.64-6.71
				c0-3.71,2.98-6.71,6.64-6.71C3249.89,1048.99,3252.87,1051.99,3252.87,1055.7z"/>
			<path style="opacity:0.988;fill:#F1F2F2;" d="M3200.81,964.71c0,3.71-2.98,6.71-6.64,6.71c-3.69,0-6.66-3-6.66-6.71
				c0-3.69,2.98-6.69,6.66-6.69C3197.84,958.02,3200.81,961.03,3200.81,964.71z"/>
			<ellipse style="opacity:0.5764;fill:#F1F2F2;" cx="2985.92" cy="267.19" rx="6.64" ry="6.7"/>
			<path style="opacity:0.6501;fill:#F1F2F2;" d="M2888.44,358.17c0,3.71-2.98,6.71-6.64,6.71c-3.66,0-6.64-3-6.64-6.71
				c0-3.69,2.98-6.69,6.64-6.69C2885.46,351.48,2888.44,354.48,2888.44,358.17z"/>
			<path style="opacity:0.6553;fill:#F1F2F2;" d="M3304.94,358.17c0,3.71-2.98,6.71-6.67,6.71c-3.66,0-6.64-3-6.64-6.71
				c0-3.69,2.98-6.69,6.64-6.69C3301.96,351.48,3304.94,354.48,3304.94,358.17z"/>
			<path style="opacity:0.6531;fill:#F1F2F2;" d="M3409.04,661.44c0,3.71-2.95,6.72-6.64,6.72c-3.66,0-6.64-3-6.64-6.72
				c0-3.68,2.98-6.69,6.64-6.69C3406.09,654.75,3409.04,657.76,3409.04,661.44z"/>
			<path style="opacity:0.7985;fill:#F1F2F2;" d="M3513.17,600.8c0,3.71-2.98,6.69-6.64,6.69c-3.66,0-6.64-2.98-6.64-6.69
				c0-3.71,2.98-6.71,6.64-6.71C3510.19,594.08,3513.17,597.09,3513.17,600.8z"/>
			<path style="opacity:0.8668;fill:#F1F2F2;" d="M2966.54,555.31c0,3.69-2.98,6.69-6.64,6.69c-3.69,0-6.64-3-6.64-6.69
				c0-3.71,2.95-6.71,6.64-6.71C2963.56,548.6,2966.54,551.6,2966.54,555.31z"/>
			<path style="opacity:0.8785;fill:#F1F2F2;" d="M2992.56,509.81c0,3.71-2.98,6.71-6.64,6.71c-3.66,0-6.64-3-6.64-6.71
				c0-3.69,2.98-6.69,6.64-6.69C2989.59,503.12,2992.56,506.12,2992.56,509.81z"/>
			<path style="opacity:0.74;fill:#F1F2F2;" d="M2966.54,797.92c0,3.71-2.98,6.71-6.64,6.71c-3.69,0-6.64-3.01-6.64-6.71
				c0-3.69,2.95-6.69,6.64-6.69C2963.56,791.23,2966.54,794.23,2966.54,797.92z"/>
			<path style="opacity:0.9974;fill:#F1F2F2;" d="M2992.56,813.08c0,3.71-2.98,6.72-6.64,6.72c-3.66,0-6.64-3-6.64-6.72
				c0-3.68,2.98-6.69,6.64-6.69C2989.59,806.39,2992.56,809.39,2992.56,813.08z"/>
			<path style="opacity:0.9965;fill:#F1F2F2;" d="M3018.59,767.59c0,3.71-2.98,6.71-6.64,6.71c-3.66,0-6.64-3.01-6.64-6.71
				c0-3.71,2.98-6.71,6.64-6.71C3015.61,760.88,3018.59,763.88,3018.59,767.59z"/>
			<path style="opacity:0.5958;fill:#F1F2F2;" d="M2966.54,767.59c0,3.71-2.98,6.71-6.64,6.71c-3.69,0-6.64-3.01-6.64-6.71
				c0-3.71,2.95-6.71,6.64-6.71C2963.56,760.88,2966.54,763.88,2966.54,767.59z"/>
			<path style="opacity:0.502;fill:#F1F2F2;" d="M3409.04,1055.7c0,3.71-2.95,6.71-6.64,6.71c-3.66,0-6.64-3-6.64-6.71
				c0-3.71,2.98-6.71,6.64-6.71C3406.09,1048.99,3409.04,1051.99,3409.04,1055.7z"/>
			<path style="opacity:0.8656;fill:#F1F2F2;" d="M3409.04,995.06c0,3.69-2.95,6.69-6.64,6.69c-3.66,0-6.64-3-6.64-6.69
				c0-3.71,2.98-6.71,6.64-6.71C3406.09,988.35,3409.04,991.35,3409.04,995.06z"/>
			<path style="opacity:0.6714;fill:#F1F2F2;" d="M3226.84,555.31c0,3.69-2.98,6.69-6.64,6.69c-3.69,0-6.64-3-6.64-6.69
				c0-3.71,2.95-6.71,6.64-6.71C3223.86,548.6,3226.84,551.6,3226.84,555.31z"/>
			<path style="opacity:0.9386;fill:#F1F2F2;" d="M3174.79,524.97c0,3.71-2.98,6.71-6.67,6.71c-3.66,0-6.64-3-6.64-6.71
				c0-3.68,2.98-6.69,6.64-6.69C3171.81,518.28,3174.79,521.28,3174.79,524.97z"/>
			<path style="opacity:0.8257;fill:#F1F2F2;" d="M3304.94,479.48c0,3.71-2.98,6.71-6.67,6.71c-3.66,0-6.64-3-6.64-6.71
				s2.98-6.71,6.64-6.71C3301.96,472.77,3304.94,475.77,3304.94,479.48z"/>
			<path style="opacity:0.8822;fill:#F1F2F2;" d="M3200.81,418.84c0,3.69-2.98,6.69-6.64,6.69c-3.69,0-6.66-3-6.66-6.69
				c0-3.71,2.98-6.71,6.66-6.71C3197.84,412.13,3200.81,415.13,3200.81,418.84z"/>
			<path style="opacity:0.7249;fill:#F1F2F2;" d="M3096.69,479.48c0,3.71-2.98,6.71-6.64,6.71c-3.69,0-6.64-3-6.64-6.71
				s2.96-6.71,6.64-6.71C3093.71,472.77,3096.69,475.77,3096.69,479.48z"/>
			<path style="opacity:0.85;fill:#F1F2F2;" d="M3513.17,843.42c0,3.69-2.98,6.69-6.64,6.69c-3.66,0-6.64-3-6.64-6.69
				c0-3.71,2.98-6.71,6.64-6.71C3510.19,836.71,3513.17,839.71,3513.17,843.42z"/>
			<path style="opacity:0.7173;fill:#F1F2F2;" d="M3513.17,722.11c0,3.68-2.98,6.69-6.64,6.69c-3.66,0-6.64-3.01-6.64-6.69
				c0-3.71,2.98-6.72,6.64-6.72C3510.19,715.4,3513.17,718.4,3513.17,722.11z"/>
			<path style="opacity:0.7483;fill:#F1F2F2;" d="M3562.51,747.04c-1.1-0.8-2.44-1.32-3.93-1.32c-3.66,0-6.64,3-6.64,6.71
				c0,3.71,2.98,6.71,6.64,6.71c1.49,0,2.83-0.51,3.93-1.32V747.04z"/>
			<path style="opacity:0.9308;fill:#F1F2F2;" d="M3096.69,964.71c0,3.71-2.98,6.71-6.64,6.71c-3.69,0-6.64-3-6.64-6.71
				c0-3.69,2.96-6.69,6.64-6.69C3093.71,958.02,3096.69,961.03,3096.69,964.71z"/>
			<path style="opacity:0.9474;fill:#F1F2F2;" d="M3513.17,964.71c0,3.71-2.98,6.71-6.64,6.71c-3.66,0-6.64-3-6.64-6.71
				c0-3.69,2.98-6.69,6.64-6.69C3510.19,958.02,3513.17,961.03,3513.17,964.71z"/>
			<path style="opacity:0.5499;fill:#F1F2F2;" d="M3409.04,540.13c0,3.71-2.95,6.71-6.64,6.71c-3.66,0-6.64-3-6.64-6.71
				c0-3.69,2.98-6.69,6.64-6.69C3406.09,533.44,3409.04,536.44,3409.04,540.13z"/>
			<path style="opacity:0.5903;fill:#F1F2F2;" d="M3409.04,782.76c0,3.71-2.95,6.71-6.64,6.71c-3.66,0-6.64-3-6.64-6.71
				c0-3.69,2.98-6.71,6.64-6.71C3406.09,776.04,3409.04,779.07,3409.04,782.76z"/>
		</g>
		<g style="opacity:0.51;">
			<g>
				<polygon style="opacity:0.8516;fill:#F1F2F2;" points="12.21,0 9.98,0 28.06,10.52 28.06,252.5 0,268.85 0,270.14 28.89,253.31 
					29.16,253.15 29.16,9.88 				"/>
			</g>
			<g>
				<path style="opacity:0.9669;fill:#F1F2F2;" d="M28.61,283.8L2.03,268.31v-30.97l26.58-15.49l26.59,15.49v30.97L28.61,283.8z
					 M3.14,267.66l25.48,14.85l25.48-14.85v-29.68l-25.48-14.84L3.14,237.99V267.66z"/>
			</g>
			<g>
				<polygon style="opacity:0.716;fill:#F1F2F2;" points="45.02,0 28.61,9.56 12.21,0 9.98,0 28.61,10.85 47.24,0 				"/>
			</g>
			<g>
				<polygon style="opacity:0.8412;fill:#F1F2F2;" points="28.61,9.56 0,26.23 0,27.51 28.61,10.85 132.18,71.18 132.18,191.85 
					28.61,252.17 0,235.51 0,236.8 28.33,253.31 28.61,253.47 133.01,192.65 133.29,192.49 133.29,70.53 				"/>
			</g>
			<g>
				<path style="opacity:0.994;fill:#F1F2F2;" d="M236.85,374.78L132.18,313.8V191.85l104.68-60.97l104.67,60.97V313.8
					L236.85,374.78z M133.29,313.15l103.57,60.34l103.57-60.34V192.49l-103.57-60.33l-103.57,60.33V313.15z"/>
			</g>
			<g>
				<path style="opacity:0.9394;fill:#F1F2F2;" d="M236.85,374.78L132.18,313.8V191.85l104.68-60.97l104.67,60.97V313.8
					L236.85,374.78z M133.29,313.15l103.57,60.34l103.57-60.34V192.49l-103.57-60.33l-103.57,60.33V313.15z"/>
			</g>
			<g>
				<polygon style="opacity:0.9775;fill:#F1F2F2;" points="253.27,0 236.85,9.56 220.45,0 218.23,0 236.85,10.85 255.48,0 				"/>
			</g>
			<g>
				<path style="opacity:0.7716;fill:#F1F2F2;" d="M236.85,253.47l-0.27-0.16l-104.41-60.82V70.53L236.85,9.56l104.67,60.97v121.96
					l-0.27,0.16L236.85,253.47z M133.29,191.85l103.57,60.33l103.57-60.33V71.18L236.85,10.85L133.29,71.18V191.85z"/>
			</g>
			<g>
				<polygon style="opacity:0.6343;fill:#F1F2F2;" points="253.27,0 236.85,9.56 220.45,0 218.23,0 236.85,10.85 255.48,0 				"/>
			</g>
			<g>
				<polygon style="opacity:0.6715;fill:#F1F2F2;" points="496.61,0 496.61,40.21 445.1,70.21 393.59,40.21 393.59,0 392.48,0 
					392.48,40.86 445.1,71.51 497.72,40.86 497.72,0 				"/>
			</g>
			<g>
				<polygon style="opacity:0.9459;fill:#F1F2F2;" points="548.67,0 548.67,70.53 445.1,130.87 341.53,70.53 341.53,0 340.43,0 
					340.43,71.18 445.1,132.16 549.77,71.18 549.77,0 				"/>
			</g>
			<g>
				<path style="opacity:0.5261;fill:#F1F2F2;" d="M445.1,283.8l-26.59-15.49v-30.97l26.59-15.49l26.57,15.49v30.97L445.1,283.8z
					 M419.63,267.66l25.48,14.85l25.47-14.85v-29.68l-25.47-14.84l-25.48,14.84V267.66z"/>
			</g>
			<g>
				<path style="opacity:0.5223;fill:#F1F2F2;" d="M236.85,253.47l-0.27-0.16l-104.41-60.82V70.53L236.85,9.56l104.67,60.97v121.96
					l-0.27,0.16L236.85,253.47z M133.29,191.85l103.57,60.33l103.57-60.33V71.18L236.85,10.85L133.29,71.18V191.85z"/>
			</g>
			<g>
				<polygon style="opacity:0.8962;fill:#F1F2F2;" points="678.82,0 678.82,25.05 653.34,39.89 627.87,25.05 627.87,0 626.76,0 
					626.76,25.69 653.34,41.19 679.93,25.69 679.93,0 				"/>
			</g>
			<g>
				<path style="opacity:0.5211;fill:#F1F2F2;" d="M653.34,283.8l-26.59-15.49v-30.97l26.59-15.49l26.59,15.49v30.97L653.34,283.8z
					 M627.87,267.66l25.48,14.85l25.47-14.85v-29.68l-25.47-14.84l-25.48,14.84V267.66z"/>
			</g>
			<g>
				<path style="opacity:0.6374;fill:#F1F2F2;" d="M445.1,617.4l-0.28-0.16L236.3,495.77V252.5l0.28-0.16L445.1,130.87l0.27,0.16
					L653.89,252.5v243.26l-0.27,0.17L445.1,617.4z M237.41,495.12L445.1,616.1l207.68-120.98V253.15L445.1,132.16L237.41,253.15
					V495.12z"/>
			</g>
			<g>
				<path style="opacity:0.5189;fill:#F1F2F2;" d="M445.1,253.47l-0.28-0.16l-104.4-60.82V70.53L445.1,9.56l104.66,60.97v121.96
					l-0.27,0.16L445.1,253.47z M341.53,191.85l103.58,60.33l103.57-60.33V71.18L445.1,10.85L341.53,71.18V191.85z"/>
			</g>
			<g>
				<path style="opacity:0.5082;fill:#F1F2F2;" d="M653.34,314.12l-52.61-30.65v-61.29l52.61-30.65l52.61,30.65v61.29L653.34,314.12
					z M601.83,282.83l51.52,30l51.5-30v-60.01l-51.5-29.99l-51.52,29.99V282.83z"/>
			</g>
			<g>
				<polygon style="opacity:0.5792;fill:#F1F2F2;" points="965.15,0 965.15,70.53 861.58,130.87 758.02,70.53 758.02,0 756.91,0 
					756.91,71.18 861.58,132.16 965.99,71.35 966.26,71.18 966.26,0 				"/>
			</g>
			<g>
				<path style="opacity:0.9861;fill:#F1F2F2;" d="M653.34,253.47l-0.28-0.16l-104.39-60.82V70.53L653.34,9.56l104.67,60.97v121.96
					l-0.28,0.16L653.34,253.47z M549.78,191.85l103.57,60.33l103.57-60.33V71.18L653.34,10.85L549.78,71.18V191.85z"/>
			</g>
			<g>
				<polygon style="opacity:0.9808;fill:#F1F2F2;" points="470.58,0 470.58,25.05 445.1,39.89 419.63,25.05 419.63,0 418.52,0 
					418.52,25.69 445.1,41.19 471.68,25.69 471.68,0 				"/>
			</g>
			<g>
				<polygon style="opacity:0.9699;fill:#F1F2F2;" points="965.15,0 965.15,70.53 861.58,130.87 758.02,70.53 758.02,0 756.91,0 
					756.91,71.18 861.58,132.16 965.99,71.35 966.26,71.18 966.26,0 				"/>
			</g>
			<g>
				<path style="opacity:0.9622;fill:#F1F2F2;" d="M445.1,374.78L340.43,313.8V191.85l104.67-60.97l104.66,60.97V313.8L445.1,374.78
					z M341.53,313.15l103.58,60.34l103.57-60.34V192.49L445.1,132.16l-103.58,60.33V313.15z"/>
			</g>
			<g>
				<path style="opacity:0.6304;fill:#F1F2F2;" d="M445.1,374.78L340.43,313.8V191.85l104.67-60.97l104.66,60.97V313.8L445.1,374.78
					z M341.53,313.15l103.58,60.34l103.57-60.34V192.49L445.1,132.16l-103.58,60.33V313.15z"/>
			</g>
			<g>
				<path style="opacity:0.8387;fill:#F1F2F2;" d="M653.34,678.05l-52.61-30.65v-61.31l52.61-30.64l52.61,30.64v61.31L653.34,678.05
					z M601.83,646.75l51.52,30.01l51.5-30.01v-60.01l-51.5-30.01l-51.52,30.01V646.75z"/>
			</g>
			<g>
				<path style="opacity:0.9051;fill:#F1F2F2;" d="M653.34,738.71l-104.67-60.97V555.78l104.67-60.98l104.67,60.98v121.96
					L653.34,738.71z M549.78,677.09l103.57,60.33l103.57-60.33V556.42L653.34,496.1l-103.57,60.32V677.09z"/>
			</g>
			<g>
				<polygon style="opacity:0.6545;fill:#F1F2F2;" points="756.91,0 756.91,70.53 653.34,130.87 549.78,70.53 549.78,0 548.67,0 
					548.67,71.18 653.34,132.16 758.02,71.18 758.02,0 				"/>
			</g>
			<g>
				<polygon style="opacity:0.9574;fill:#F1F2F2;" points="878,0 861.58,9.56 845.18,0 842.96,0 861.58,10.85 880.21,0 				"/>
			</g>
			<g>
				<path style="opacity:0.9474;fill:#F1F2F2;" d="M861.58,617.4l-0.28-0.16L652.78,495.77V252.5l0.28-0.16l208.52-121.47l0.28,0.16
					l208.52,121.47v243.26l-0.28,0.17L861.58,617.4z M653.89,495.12L861.58,616.1l207.69-120.98V253.15L861.58,132.16L653.89,253.15
					V495.12z"/>
			</g>
			<g>
				<path style="opacity:0.8086;fill:#F1F2F2;" d="M1069.82,314.12l-52.61-30.65v-61.29l52.61-30.65l52.62,30.65v61.29
					L1069.82,314.12z M1018.32,282.83l51.5,30l51.51-30v-60.01l-51.51-29.99l-51.5,29.99V282.83z"/>
			</g>
			<g>
				<path style="opacity:0.5531;fill:#F1F2F2;" d="M861.58,678.05l-52.61-30.65v-61.31l52.61-30.64l52.61,30.64v61.31L861.58,678.05
					z M810.08,646.75l51.5,30.01l51.5-30.01v-60.01l-51.5-30.01l-51.5,30.01V646.75z"/>
			</g>
			<g>
				<polygon style="opacity:0.9538;fill:#F1F2F2;" points="1086.24,0 1069.82,9.56 1053.42,0 1051.2,0 1069.82,10.85 1088.45,0 				
					"/>
			</g>
			<g>
				<polygon style="opacity:0.8754;fill:#F1F2F2;" points="1381.64,0 1381.64,70.53 1278.07,130.87 1174.51,70.53 1174.51,0 
					1173.4,0 1173.4,71.18 1278.07,132.16 1382.75,71.18 1382.75,0 				"/>
			</g>
			<g>
				<polygon style="opacity:0.5051;fill:#F1F2F2;" points="965.15,0 965.15,70.53 861.58,130.87 758.02,70.53 758.02,0 756.91,0 
					756.91,71.18 861.58,132.16 965.99,71.35 966.26,71.18 966.26,0 				"/>
			</g>
			<g>
				<polygon style="opacity:0.8517;fill:#F1F2F2;" points="1259.45,0 1277.51,10.52 1277.51,252.5 1069.82,373.49 862.13,252.5 
					862.13,10.52 880.21,0 878,0 861.3,9.72 861.03,9.88 861.03,253.15 1069.55,374.62 1069.82,374.78 1278.34,253.31 
					1278.63,253.15 1278.63,9.88 1261.66,0 				"/>
			</g>
			<g>
				<path style="opacity:0.61;fill:#F1F2F2;" d="M1278.07,283.8l-26.59-15.49v-30.97l26.59-15.49l26.58,15.49v30.97L1278.07,283.8z
					 M1252.6,267.66l25.47,14.85l25.48-14.85v-29.68l-25.48-14.84l-25.47,14.84V267.66z"/>
			</g>
			<g>
				<path style="opacity:0.6181;fill:#F1F2F2;" d="M861.58,374.78L756.91,313.8V191.85l104.67-60.97l0.28,0.16l104.39,60.82V313.8
					l-0.27,0.17L861.58,374.78z M758.02,313.15l103.57,60.34l103.57-60.34V192.49l-103.57-60.33l-103.57,60.33V313.15z"/>
			</g>
			<g>
				<path style="opacity:0.876;fill:#F1F2F2;" d="M1069.82,617.4l-0.27-0.16L861.03,495.77V252.5l0.27-0.16l208.52-121.47l0.28,0.16
					l208.52,121.47v243.26l-0.28,0.17L1069.82,617.4z M862.13,495.12l207.69,120.98l207.69-120.98V253.15l-207.69-120.99
					L862.13,253.15V495.12z"/>
			</g>
			<g>
				<path style="opacity:0.5845;fill:#F1F2F2;" d="M1069.82,678.05l-52.61-30.65v-61.31l52.61-30.64l52.62,30.64v61.31
					L1069.82,678.05z M1018.32,646.75l51.5,30.01l51.51-30.01v-60.01l-51.51-30.01l-51.5,30.01V646.75z"/>
			</g>
			<g>
				<path style="opacity:0.5432;fill:#F1F2F2;" d="M861.58,617.4l-0.28-0.16l-104.39-60.82V434.46l104.67-60.97l0.28,0.16
					l104.39,60.82v121.96l-0.27,0.16L861.58,617.4z M758.02,555.78l103.57,60.32l103.57-60.32V435.11l-103.57-60.33l-103.57,60.33
					V555.78z"/>
			</g>
			<g>
				<polygon style="opacity:0.8471;fill:#F1F2F2;" points="1589.89,0 1589.89,70.53 1486.31,130.87 1382.75,70.53 1382.75,0 
					1381.64,0 1381.64,71.18 1486.31,132.16 1590.99,71.18 1590.99,0 				"/>
			</g>
			<g>
				<path style="opacity:0.7774;fill:#F1F2F2;" d="M1278.07,192.82l-52.61-30.67v-61.29l52.61-30.65l52.61,30.65v61.29
					L1278.07,192.82z M1226.56,161.51l51.51,30.02l51.5-30.02v-60l-51.5-30l-51.51,30V161.51z"/>
			</g>
			<g>
				<polygon style="opacity:0.6187;fill:#F1F2F2;" points="1294.48,0 1278.07,9.56 1261.66,0 1259.45,0 1278.07,10.85 1296.7,0 				
					"/>
			</g>
			<g>
				<polygon style="opacity:0.6525;fill:#F1F2F2;" points="1537.82,0 1537.82,40.21 1486.31,70.21 1434.81,40.21 1434.81,0 
					1433.7,0 1433.7,40.86 1486.31,71.51 1538.94,40.86 1538.94,0 				"/>
			</g>
			<g>
				<polygon style="opacity:0.6134;fill:#F1F2F2;" points="1589.89,0 1589.89,70.53 1486.31,130.87 1382.75,70.53 1382.75,0 
					1381.64,0 1381.64,71.18 1486.31,132.16 1590.99,71.18 1590.99,0 				"/>
			</g>
			<g>
				<path style="opacity:0.951;fill:#F1F2F2;" d="M1069.82,374.78L965.15,313.8V191.85l104.67-60.97l0.28,0.16l104.4,60.82V313.8
					l-0.27,0.17L1069.82,374.78z M966.26,313.15l103.57,60.34l103.58-60.34V192.49l-103.58-60.33l-103.57,60.33V313.15z"/>
			</g>
			<g>
				<path style="opacity:0.6256;fill:#F1F2F2;" d="M1486.31,617.4l-0.28-0.16l-104.39-60.82V434.46l104.67-60.97l104.68,60.97
					v121.96l-0.27,0.16L1486.31,617.4z M1382.75,555.78l103.56,60.32l103.58-60.32V435.11l-103.58-60.33l-103.56,60.33V555.78z"/>
			</g>
			<g>
				<path style="opacity:0.6699;fill:#F1F2F2;" d="M1069.82,617.4l-0.27-0.16l-104.4-60.82V434.46l104.67-60.97l0.28,0.16
					l104.4,60.82v121.96l-0.27,0.16L1069.82,617.4z M966.26,555.78l103.57,60.32l103.58-60.32V435.11l-103.58-60.33l-103.57,60.33
					V555.78z"/>
			</g>
			<path style="opacity:0.6867;fill:#F1F2F2;" d="M35.25,283.15c0,3.7-2.97,6.7-6.64,6.7c-3.67,0-6.64-3-6.64-6.7
				c0-3.7,2.97-6.71,6.64-6.71C32.29,276.44,35.25,279.45,35.25,283.15z"/>
			<path style="opacity:0.975;fill:#F1F2F2;" d="M139.38,192.18c0,3.7-2.98,6.7-6.64,6.7c-3.68,0-6.65-3-6.65-6.7
				c0-3.71,2.98-6.71,6.65-6.71C136.4,185.46,139.38,188.46,139.38,192.18z"/>
			<path style="opacity:0.9056;fill:#F1F2F2;" d="M243.5,10.2c0,3.7-2.98,6.7-6.65,6.7c-3.66,0-6.64-3-6.64-6.7
				c0-3.7,2.98-6.7,6.64-6.7C240.53,3.5,243.5,6.51,243.5,10.2z"/>
			<path style="opacity:0.862;fill:#F1F2F2;" d="M243.5,252.82c0,3.71-2.98,6.7-6.65,6.7c-3.66,0-6.64-2.99-6.64-6.7
				c0-3.7,2.98-6.7,6.64-6.7C240.53,246.12,243.5,249.12,243.5,252.82z"/>
			<path style="opacity:0.7249;fill:#F1F2F2;" d="M399.68,40.54c0,3.7-2.98,6.7-6.64,6.7c-3.68,0-6.65-3-6.65-6.7
				c0-3.71,2.98-6.72,6.65-6.72C396.7,33.83,399.68,36.83,399.68,40.54z"/>
			<path style="opacity:0.5437;fill:#F1F2F2;" d="M503.81,40.54c0,3.7-2.98,6.7-6.65,6.7c-3.66,0-6.64-3-6.64-6.7
				c0-3.71,2.98-6.72,6.64-6.72C500.83,33.83,503.81,36.83,503.81,40.54z"/>
			<path style="opacity:0.8559;fill:#F1F2F2;" d="M347.62,70.86c0,3.7-2.97,6.7-6.64,6.7c-3.68,0-6.64-3-6.64-6.7
				c0-3.71,2.97-6.7,6.64-6.7C344.65,64.16,347.62,67.15,347.62,70.86z"/>
			<path style="opacity:0.691;fill:#F1F2F2;" d="M451.74,283.15c0,3.7-2.98,6.7-6.64,6.7c-3.68,0-6.65-3-6.65-6.7
				c0-3.7,2.98-6.71,6.65-6.71C448.77,276.44,451.74,279.45,451.74,283.15z"/>
			<path style="opacity:0.6169;fill:#F1F2F2;" d="M243.5,252.82c0,3.71-2.98,6.7-6.65,6.7c-3.66,0-6.64-2.99-6.64-6.7
				c0-3.7,2.98-6.7,6.64-6.7C240.53,246.12,243.5,249.12,243.5,252.82z"/>
			<path style="opacity:0.5121;fill:#F1F2F2;" d="M347.62,192.18c0,3.7-2.98,6.7-6.64,6.7c-3.68,0-6.65-3-6.65-6.7
				c0-3.71,2.98-6.71,6.65-6.71C344.64,185.46,347.62,188.46,347.62,192.18z"/>
			<path style="opacity:0.8706;fill:#F1F2F2;" d="M659.98,40.54c0,3.7-2.98,6.7-6.64,6.7c-3.67,0-6.65-3-6.65-6.7
				c0-3.71,2.98-6.72,6.65-6.72C657.01,33.83,659.98,36.83,659.98,40.54z"/>
			<path style="opacity:0.6625;fill:#F1F2F2;" d="M686.02,237.66c0,3.7-2.98,6.7-6.65,6.7c-3.66,0-6.64-3-6.64-6.7
				c0-3.7,2.98-6.7,6.64-6.7C683.04,230.96,686.02,233.96,686.02,237.66z"/>
			<path style="opacity:0.6645;fill:#F1F2F2;" d="M451.74,616.75c0,3.7-2.98,6.7-6.64,6.7c-3.68,0-6.65-3-6.65-6.7
				c0-3.7,2.98-6.7,6.65-6.7C448.77,610.05,451.74,613.05,451.74,616.75z"/>
			<path style="opacity:0.9538;fill:#F1F2F2;" d="M659.98,495.45c0,3.7-2.98,6.7-6.64,6.7c-3.67,0-6.65-3-6.65-6.7
				c0-3.71,2.98-6.7,6.65-6.7C657.01,488.74,659.98,491.73,659.98,495.45z"/>
			<path style="opacity:0.6405;fill:#F1F2F2;" d="M243.5,252.82c0,3.71-2.98,6.7-6.65,6.7c-3.66,0-6.64-2.99-6.64-6.7
				c0-3.7,2.98-6.7,6.64-6.7C240.53,246.12,243.5,249.12,243.5,252.82z"/>
			<path style="opacity:0.5246;fill:#F1F2F2;" d="M451.74,252.82c0,3.71-2.98,6.7-6.64,6.7c-3.68,0-6.65-2.99-6.65-6.7
				c0-3.7,2.98-6.7,6.65-6.7C448.77,246.12,451.74,249.12,451.74,252.82z"/>
			<path style="opacity:0.7605;fill:#F1F2F2;" d="M555.87,192.18c0,3.7-2.98,6.7-6.65,6.7c-3.67,0-6.64-3-6.64-6.7
				c0-3.71,2.97-6.71,6.64-6.71C552.89,185.46,555.87,188.46,555.87,192.18z"/>
			<path style="opacity:0.6166;fill:#F1F2F2;" d="M555.87,70.86c0,3.7-2.98,6.7-6.65,6.7c-3.67,0-6.64-3-6.64-6.7
				c0-3.71,2.97-6.7,6.64-6.7C552.89,64.16,555.87,67.15,555.87,70.86z"/>
			<path style="opacity:0.5032;fill:#F1F2F2;" d="M712.05,222.5c0,3.7-2.98,6.7-6.64,6.7c-3.67,0-6.65-3-6.65-6.7
				c0-3.71,2.98-6.7,6.65-6.7C709.07,215.79,712.05,218.79,712.05,222.5z"/>
			<path style="opacity:0.9074;fill:#F1F2F2;" d="M972.35,70.86c0,3.7-2.98,6.7-6.64,6.7c-3.67,0-6.64-3-6.64-6.7
				c0-3.71,2.97-6.7,6.64-6.7C969.37,64.16,972.35,67.15,972.35,70.86z"/>
			<path style="opacity:0.6002;fill:#F1F2F2;" d="M414.63,0c1.17,1.08,2.72,1.75,4.43,1.75c1.72,0,3.26-0.67,4.44-1.75H414.63z"/>
			<path style="opacity:0.6002;fill:#F1F2F2;" d="M868.22,131.52c0,3.7-2.97,6.7-6.64,6.7s-6.64-3-6.64-6.7
				c0-3.71,2.97-6.71,6.64-6.71S868.22,127.81,868.22,131.52z"/>
			<path style="opacity:0.6607;fill:#F1F2F2;" d="M555.87,192.18c0,3.7-2.98,6.7-6.65,6.7c-3.67,0-6.64-3-6.64-6.7
				c0-3.71,2.97-6.71,6.64-6.71C552.89,185.46,555.87,188.46,555.87,192.18z"/>
			<path style="opacity:0.5786;fill:#F1F2F2;" d="M712.05,647.08c0,3.7-2.98,6.7-6.64,6.7c-3.67,0-6.65-3-6.65-6.7
				c0-3.71,2.98-6.7,6.65-6.7C709.07,640.38,712.05,643.37,712.05,647.08z"/>
			<path style="opacity:0.9283;fill:#F1F2F2;" d="M659.98,556.09c0,3.71-2.98,6.71-6.64,6.71c-3.67,0-6.65-3-6.65-6.71
				c0-3.7,2.98-6.7,6.65-6.7C657.01,549.39,659.98,552.39,659.98,556.09z"/>
			<path style="opacity:0.6334;fill:#F1F2F2;" d="M607.92,586.42c0,3.7-2.97,6.7-6.64,6.7c-3.67,0-6.64-3-6.64-6.7
				c0-3.7,2.97-6.71,6.64-6.71C604.95,579.71,607.92,582.73,607.92,586.42z"/>
			<path style="opacity:0.6939;fill:#F1F2F2;" d="M555.87,677.41c0,3.7-2.98,6.7-6.65,6.7c-3.66,0-6.64-3.01-6.64-6.7
				c0-3.7,2.98-6.7,6.64-6.7C552.89,670.7,555.87,673.71,555.87,677.41z"/>
			<path style="opacity:0.7705;fill:#F1F2F2;" d="M659.98,131.52c0,3.7-2.98,6.7-6.64,6.7c-3.67,0-6.65-3-6.65-6.7
				c0-3.71,2.98-6.71,6.65-6.71C657.01,124.81,659.98,127.81,659.98,131.52z"/>
			<path style="opacity:0.8428;fill:#F1F2F2;" d="M764.11,70.86c0,3.7-2.98,6.7-6.66,6.7c-3.66,0-6.64-3-6.64-6.7
				c0-3.71,2.98-6.7,6.64-6.7C761.13,64.16,764.11,67.15,764.11,70.86z"/>
			<path style="opacity:0.9917;fill:#F1F2F2;" d="M1128.54,283.15c0,3.7-2.98,6.7-6.65,6.7c-3.66,0-6.64-3-6.64-6.7
				c0-3.7,2.98-6.71,6.64-6.71C1125.56,276.44,1128.54,279.45,1128.54,283.15z"/>
			<path style="opacity:0.9612;fill:#F1F2F2;" d="M1128.54,222.5c0,3.7-2.98,6.7-6.65,6.7c-3.66,0-6.64-3-6.64-6.7
				c0-3.71,2.98-6.7,6.64-6.7C1125.56,215.79,1128.54,218.79,1128.54,222.5z"/>
			<path style="opacity:0.6836;fill:#F1F2F2;" d="M1388.84,70.86c0,3.7-2.98,6.7-6.65,6.7c-3.66,0-6.64-3-6.64-6.7
				c0-3.71,2.98-6.7,6.64-6.7C1385.86,64.16,1388.84,67.15,1388.84,70.86z"/>
			<path style="opacity:0.9087;fill:#F1F2F2;" d="M764.11,70.86c0,3.7-2.98,6.7-6.64,6.7c-3.67,0-6.65-3-6.65-6.7
				c0-3.71,2.98-6.7,6.65-6.7C761.13,64.16,764.11,67.15,764.11,70.86z"/>
			<path style="opacity:0.7254;fill:#F1F2F2;" d="M972.35,70.86c0,3.7-2.98,6.7-6.64,6.7c-3.67,0-6.64-3-6.64-6.7
				c0-3.71,2.97-6.7,6.64-6.7C969.37,64.16,972.35,67.15,972.35,70.86z"/>
			<path style="opacity:0.5217;fill:#F1F2F2;" d="M868.22,252.82c0,3.71-2.97,6.7-6.64,6.7s-6.64-2.99-6.64-6.7
				c0-3.7,2.97-6.7,6.64-6.7S868.22,249.12,868.22,252.82z"/>
			<path style="opacity:0.758;fill:#F1F2F2;" d="M868.22,10.2c0,3.7-2.97,6.7-6.64,6.7s-6.64-3-6.64-6.7c0-3.7,2.97-6.7,6.64-6.7
				S868.22,6.51,868.22,10.2z"/>
			<path style="opacity:0.5672;fill:#F1F2F2;" d="M1258.69,267.99c0,3.7-2.98,6.7-6.66,6.7c-3.66,0-6.64-3-6.64-6.7
				c0-3.71,2.98-6.71,6.64-6.71C1255.71,261.28,1258.69,264.28,1258.69,267.99z"/>
			<path style="opacity:0.6639;fill:#F1F2F2;" d="M1310.75,237.66c0,3.7-2.98,6.7-6.65,6.7c-3.66,0-6.64-3-6.64-6.7
				c0-3.7,2.98-6.7,6.64-6.7C1307.78,230.96,1310.75,233.96,1310.75,237.66z"/>
			<path style="opacity:0.7845;fill:#F1F2F2;" d="M1284.72,222.5c0,3.7-2.98,6.7-6.64,6.7c-3.67,0-6.64-3-6.64-6.7
				c0-3.71,2.97-6.7,6.64-6.7C1281.74,215.79,1284.72,218.79,1284.72,222.5z"/>
			<path style="opacity:0.8686;fill:#F1F2F2;" d="M1076.48,677.41c0,3.7-2.98,6.7-6.65,6.7c-3.66,0-6.64-3.01-6.64-6.7
				c0-3.7,2.98-6.7,6.64-6.7C1073.5,670.7,1076.48,673.71,1076.48,677.41z"/>
			<path style="opacity:0.9438;fill:#F1F2F2;" d="M972.35,434.79c0,3.7-2.98,6.7-6.64,6.7c-3.67,0-6.64-3-6.64-6.7
				c0-3.7,2.97-6.71,6.64-6.71C969.37,428.08,972.35,431.09,972.35,434.79z"/>
			<path style="opacity:0.8488;fill:#F1F2F2;" d="M868.22,374.13c0,3.7-2.97,6.7-6.64,6.7s-6.64-3-6.64-6.7c0-3.7,2.97-6.7,6.64-6.7
				S868.22,370.43,868.22,374.13z"/>
			<path style="opacity:0.5604;fill:#F1F2F2;" d="M1388.84,70.86c0,3.7-2.98,6.7-6.64,6.7c-3.68,0-6.65-3-6.65-6.7
				c0-3.71,2.98-6.7,6.65-6.7C1385.86,64.16,1388.84,67.15,1388.84,70.86z"/>
			<path style="opacity:0.8646;fill:#F1F2F2;" d="M1492.96,131.52c0,3.7-2.97,6.7-6.64,6.7c-3.67,0-6.64-3-6.64-6.7
				c0-3.71,2.97-6.71,6.64-6.71C1489.99,124.81,1492.96,127.81,1492.96,131.52z"/>
			<path style="opacity:0.5312;fill:#F1F2F2;" d="M1284.72,192.18c0,3.7-2.98,6.7-6.64,6.7c-3.67,0-6.64-3-6.64-6.7
				c0-3.71,2.97-6.71,6.64-6.71C1281.74,185.46,1284.72,188.46,1284.72,192.18z"/>
			<path style="opacity:0.7235;fill:#F1F2F2;" d="M1440.9,40.54c0,3.7-2.98,6.7-6.65,6.7c-3.66,0-6.64-3-6.64-6.7
				c0-3.71,2.98-6.72,6.64-6.72C1437.93,33.83,1440.9,36.83,1440.9,40.54z"/>
			<path style="opacity:0.5885;fill:#F1F2F2;" d="M1545.02,40.54c0,3.7-2.98,6.7-6.64,6.7c-3.66,0-6.64-3-6.64-6.7
				c0-3.71,2.98-6.72,6.64-6.72C1542.04,33.83,1545.02,36.83,1545.02,40.54z"/>
			<path style="opacity:0.8858;fill:#F1F2F2;" d="M972.35,313.48c0,3.7-2.98,6.7-6.64,6.7c-3.67,0-6.64-3-6.64-6.7
				c0-3.7,2.97-6.7,6.64-6.7C969.37,306.77,972.35,309.78,972.35,313.48z"/>
			<path style="opacity:0.5875;fill:#F1F2F2;" d="M1180.59,313.48c0,3.7-2.96,6.7-6.64,6.7c-3.67,0-6.64-3-6.64-6.7
				c0-3.7,2.97-6.7,6.64-6.7C1177.63,306.77,1180.59,309.78,1180.59,313.48z"/>
			<path style="opacity:0.9745;fill:#F1F2F2;" d="M1492.96,374.13c0,3.7-2.97,6.7-6.64,6.7c-3.67,0-6.64-3-6.64-6.7
				c0-3.7,2.97-6.7,6.64-6.7C1489.99,367.43,1492.96,370.43,1492.96,374.13z"/>
			<path style="opacity:0.6677;fill:#F1F2F2;" d="M1076.48,616.75c0,3.7-2.98,6.7-6.65,6.7c-3.66,0-6.64-3-6.64-6.7
				c0-3.7,2.98-6.7,6.64-6.7C1073.5,610.05,1076.48,613.05,1076.48,616.75z"/>
			<path style="opacity:0.779;fill:#F1F2F2;" d="M1076.48,374.13c0,3.7-2.98,6.7-6.65,6.7c-3.66,0-6.64-3-6.64-6.7
				c0-3.7,2.98-6.7,6.64-6.7C1073.5,367.43,1076.48,370.43,1076.48,374.13z"/>
		</g>
	</g>
</g>
</svg>
